<?xml version="1.0" encoding="UTF-8" standalone="no"?>
<svg
   xmlns:dc="http://purl.org/dc/elements/1.1/"
   xmlns:cc="http://creativecommons.org/ns#"
   xmlns:rdf="http://www.w3.org/1999/02/22-rdf-syntax-ns#"
   xmlns:svg="http://www.w3.org/2000/svg"
   xmlns="http://www.w3.org/2000/svg"
   xmlns:sodipodi="http://sodipodi.sourceforge.net/DTD/sodipodi-0.dtd"
   xmlns:inkscape="http://www.inkscape.org/namespaces/inkscape"
   width="32"
   height="32"
   version="1.1"
   id="svg75"
   sodipodi:docname="applications.svg"
   inkscape:version="1.0.2 (e86c870879, 2021-01-15)">
  <metadata
     id="metadata79">
    <rdf:RDF>
      <cc:Work
         rdf:about="">
        <dc:format>image/svg+xml</dc:format>
        <dc:type
           rdf:resource="http://purl.org/dc/dcmitype/StillImage" />
        <dc:title></dc:title>
      </cc:Work>
    </rdf:RDF>
  </metadata>
  <sodipodi:namedview
     pagecolor="#c8c8c8"
     bordercolor="#666666"
     borderopacity="1"
     objecttolerance="10"
     gridtolerance="10"
     guidetolerance="10"
     inkscape:pageopacity="0"
     inkscape:pageshadow="2"
     inkscape:window-width="1920"
     inkscape:window-height="935"
     id="namedview77"
     showgrid="true"
     inkscape:snap-bbox="true"
     inkscape:bbox-nodes="true"
     inkscape:snap-bbox-edge-midpoints="true"
     inkscape:zoom="7.535925"
     inkscape:cx="-16.736461"
     inkscape:cy="35.69672"
     inkscape:window-x="0"
     inkscape:window-y="38"
     inkscape:window-maximized="1"
     inkscape:current-layer="svg75"
     inkscape:document-rotation="0">
    <inkscape:grid
       type="xygrid"
       id="grid904" />
  </sodipodi:namedview>
  <defs
     id="defs3">
    <style
       id="current-color-scheme"
       type="text/css">.ColorScheme-Text { color:#363636; }</style>
  </defs>
  <g
     id="applications-other"
     transform="translate(-21.949749)">
    <rect
       x="21.949741"
       width="32"
       height="32"
       opacity="0"
       id="rect10"
       y="7.1054274e-15" />
    <g
       id="g944"
       transform="translate(-39.050258,-2.4142157)">
      <rect
         style="fill:#ff4e5e;fill-opacity:1;stroke-width:2.44232;stroke-linecap:round;paint-order:stroke fill markers"
         id="rect920"
         width="20"
         height="17"
         x="67.050255"
         y="13.414216"
         ry="5" />
      <rect
         style="fill:#ff4e5e;fill-opacity:1;stroke-width:2.58199;stroke-linecap:round;paint-order:stroke fill markers"
         id="rect922"
         width="20"
         height="19"
         x="67.050255"
         y="8.8786831"
         ry="9.5" />
      <rect
         style="fill:#ff4e5e;fill-opacity:1;stroke-width:3.54965;stroke-linecap:round;paint-order:stroke fill markers"
         id="rect924"
         width="7"
         height="2"
         x="54.776299"
         y="-44.875515"
         ry="1"
         transform="rotate(45)" />
      <rect
         style="fill:#ff4e5e;fill-opacity:1;stroke-width:3.54965;stroke-linecap:round;paint-order:stroke fill markers"
         id="rect926"
         width="7"
         height="2"
         x="-54.189224"
         y="64.090012"
         ry="1"
         transform="matrix(-0.70710678,0.70710678,0.70710678,0.70710678,0,0)" />
      <circle
         style="fill:#ffffff;fill-opacity:1;stroke-width:4.8;stroke-linecap:round;paint-order:stroke fill markers"
         id="path932"
         cx="77.050255"
         cy="21.914217"
         r="4" />
      <circle
         style="fill:#ff4e5e;fill-opacity:1;stroke-width:6;stroke-linecap:round;paint-order:stroke fill markers"
         id="circle934"
         cx="77.050255"
         cy="20.414217"
         r="5" />
      <circle
         style="fill:#ffffff;fill-opacity:1;stroke-width:3;stroke-linecap:round;paint-order:stroke fill markers"
         id="path928"
         cx="73.050255"
         cy="17.414217"
         r="1" />
      <circle
         style="fill:#ffffff;fill-opacity:1;stroke-width:3;stroke-linecap:round;paint-order:stroke fill markers"
         id="circle930"
         cx="81.050255"
         cy="17.414217"
         r="1" />
    </g>
  </g>
  <g
     id="22-22-applications-other"
     transform="translate(1.9511719)">
    <rect
       x="-23.951172"
       y="10"
       width="22"
       height="22"
       opacity="0"
       id="rect5-6" />
    <path
       id="path901"
       style="fill:none;stroke:#ffffff;stroke-width:2.00031;stroke-linecap:butt;stroke-linejoin:miter;stroke-miterlimit:4;stroke-dasharray:none;stroke-opacity:1"
       d="m -12.88375,13.006297 c -0.436024,-0.03948 -0.942646,0.08836 -1.45002,0.593796 l -1.222052,1.217377 h -1.730309 c 0,0 -1.913428,0 -1.913428,1.906106 v 1.723685 l -1.222052,1.217376 c 0,0 -1.352999,1.347533 0,2.695353 l 1.222052,1.217377 v 1.723685 c 0,0 0,1.906108 1.913428,1.906108 h 1.730309 l 1.222052,1.217375 c 0,0 1.352709,1.347821 2.705707,0 l 1.222053,-1.217375 h 1.7303072 c 0,0 1.9134282,0 1.9134282,-1.906108 v -1.723685 l 1.2220532,-1.217377 c 0,0 1.3529975,-1.347532 0,-2.695353 l -1.2220532,-1.217376 v -1.723685 c 0,0 0,-1.906106 -1.9134282,-1.906106 H -10.40601 l -1.222053,-1.217377 c 0,0 -0.52898,-0.527985 -1.255687,-0.593796 z" />
    <circle
       style="fill:none;fill-opacity:1;stroke:#ffffff;stroke-width:2.00159;stroke-linejoin:round;stroke-miterlimit:4;stroke-dasharray:none;stroke-opacity:1;paint-order:stroke fill markers"
       id="path912"
       cx="-12.951172"
       cy="21"
       r="2.499207" />
  </g>
</svg>
