<?xml version="1.0" encoding="UTF-8" standalone="no"?>
<svg
   id="svg7384"
   width="22"
   height="22"
   enable-background="new"
   inkscape:version="1.1 (c4e8f9ed74, 2021-05-24)"
   sodipodi:docname="printer.svg"
   version="1.1"
   xmlns:inkscape="http://www.inkscape.org/namespaces/inkscape"
   xmlns:sodipodi="http://sodipodi.sourceforge.net/DTD/sodipodi-0.dtd"
   xmlns="http://www.w3.org/2000/svg"
   xmlns:svg="http://www.w3.org/2000/svg">
  <sodipodi:namedview
     id="namedview10"
     bordercolor="#666666"
     borderopacity="1"
     gridtolerance="10"
     guidetolerance="10"
     inkscape:current-layer="svg7384"
     inkscape:cx="9.5125517"
     inkscape:cy="8.2552818"
     inkscape:pageopacity="0"
     inkscape:pageshadow="2"
     inkscape:window-height="997"
     inkscape:window-maximized="1"
     inkscape:window-width="1920"
     inkscape:window-x="0"
     inkscape:window-y="0"
     inkscape:zoom="21.077415"
     objecttolerance="10"
     pagecolor="#c8c8c8"
     showgrid="true"
     inkscape:pagecheckerboard="0">
    <inkscape:grid
       id="grid820"
       type="xygrid" />
  </sodipodi:namedview>
  <defs
     id="defs7386">
    <style
       id="current-color-scheme"
       type="text/css">.ColorScheme-Text { color:#333333; } .ColorScheme-Highlight { color:#5294e2; } .ColorScheme-ButtonBackground { color:#333333; }</style>
  </defs>
  <g
     id="printer">
    <g
       fill="#333333"
       id="g9">
      <path
         style="color:#000000;fill:#fafafa;-inkscape-stroke:none;opacity:0.75"
         d="M 8,2 C 6.892,2 6,2.892 6,4 v 1 h 0.27539 9.4492 0.27539 V 4 c 0,-1.108 -0.892,-2 -2,-2 h -6 z"
         id="rect822" />
      <path
         style="color:#000000;fill:#fafafa;-inkscape-stroke:none"
         d="M 5,5 H 17 V 6 H 5 Z"
         id="rect832" />
      <path
         style="color:#000000;fill:#fafafa;-inkscape-stroke:none"
         d="m 7,11 c -0.554,0 -1,0.446 -1,1 v 7 c 0,0.554 0.446,1 1,1 v -8 h 8 v 8 c 0.554,0 1,-0.446 1,-1 v -7 c 0,-0.554 -0.446,-1 -1,-1 z"
         id="rect830" />
    </g>
    <rect
       id="rect4140"
       x="-6e-4"
       y="-.0032821"
       width="22"
       height="22"
       opacity="0" />
    <path
       style="color:#000000;fill:#fafafa;-inkscape-stroke:none"
       d="M 4,7 C 2.892,7 2,7.892 2,9 v 4 c 0,1.108 0.892,2 2,2 h 1 v -3 c 0,-1.108 0.892,-2 2,-2 h 8 c 1.108,0 2,0.892 2,2 v 3 h 1 c 1.108,0 2,-0.892 2,-2 V 9 C 20,7.892 19.108,7 18,7 Z m 14,1 a 1,1 0 0 1 1,1 1,1 0 0 1 -1,1 1,1 0 0 1 -1,-1 1,1 0 0 1 1,-1 z"
       id="rect824" />
    <path
       style="color:#000000;fill:#fafafa;-inkscape-stroke:none;opacity:0.5"
       d="m 7,12 h 8 v 8 H 7 Z"
       id="rect847" />
  </g>
</svg>
