<?xml version="1.0" encoding="UTF-8" standalone="no"?>
<svg
   xmlns:dc="http://purl.org/dc/elements/1.1/"
   xmlns:cc="http://creativecommons.org/ns#"
   xmlns:rdf="http://www.w3.org/1999/02/22-rdf-syntax-ns#"
   xmlns:svg="http://www.w3.org/2000/svg"
   xmlns="http://www.w3.org/2000/svg"
   xmlns:xlink="http://www.w3.org/1999/xlink"
   xmlns:sodipodi="http://sodipodi.sourceforge.net/DTD/sodipodi-0.dtd"
   xmlns:inkscape="http://www.inkscape.org/namespaces/inkscape"
   version="1.1"
   viewBox="0 0 32 32"
   id="svg197"
   sodipodi:docname="system.svg"
   inkscape:version="1.0.1 (3bc2e813f5, 2020-09-07)"
   width="32"
   height="32">
  <metadata
     id="metadata201">
    <rdf:RDF>
      <cc:Work
         rdf:about="">
        <dc:format>image/svg+xml</dc:format>
        <dc:type
           rdf:resource="http://purl.org/dc/dcmitype/StillImage" />
        <dc:title />
      </cc:Work>
    </rdf:RDF>
  </metadata>
  <sodipodi:namedview
     pagecolor="#ffffff"
     bordercolor="#666666"
     borderopacity="1"
     objecttolerance="10"
     gridtolerance="10"
     guidetolerance="10"
     inkscape:pageopacity="0"
     inkscape:pageshadow="2"
     inkscape:window-width="1920"
     inkscape:window-height="935"
     id="namedview199"
     showgrid="true"
     inkscape:snap-bbox="true"
     inkscape:bbox-nodes="true"
     inkscape:snap-bbox-edge-midpoints="true"
     inkscape:zoom="22.627417"
     inkscape:cx="-29.857432"
     inkscape:cy="13.127388"
     inkscape:window-x="0"
     inkscape:window-y="38"
     inkscape:window-maximized="1"
     inkscape:current-layer="svg197"
     inkscape:snap-nodes="true"
     inkscape:document-rotation="0"
     inkscape:object-nodes="false"
     inkscape:snap-others="false">
    <inkscape:grid
       type="xygrid"
       id="grid1026" />
  </sodipodi:namedview>
  <defs
     id="defs3">
    <linearGradient
       inkscape:collect="always"
       id="linearGradient1424">
      <stop
         style="stop-color:#ffffff;stop-opacity:0.5"
         offset="0"
         id="stop1420" />
      <stop
         style="stop-color:#458aff;stop-opacity:1"
         offset="1"
         id="stop1422" />
    </linearGradient>
    <style
       id="current-color-scheme"
       type="text/css">.ColorScheme-Text { color:#363636; }</style>
    <style
       type="text/css"
       id="style947" />
    <style
       type="text/css"
       id="style1010" />
    <linearGradient
       inkscape:collect="always"
       xlink:href="#linearGradient1424"
       id="linearGradient1426"
       x1="172"
       y1="17"
       x2="181"
       y2="22"
       gradientUnits="userSpaceOnUse" />
  </defs>
  <g
     id="22-22-system-save-session"
     transform="translate(-53,100)">
    <path
       class="ColorScheme-Text"
       d="m 3,13.004 v 16 H 19 V 16.305 H 18.993 L 19,16.29 15.707,12.997 15.699,13.012 V 12.997 H 3 Z m 1,1.0018 h 3 v 5 h 8 v -5 h 0.29298 l 2.707,2.707 v 11.293 h -2 v -7 h -10 v 7 h -2 v -14 z m 4,0 h 3.9004 v 4 H 8 Z m -1,8.0001 h 8 v 6 H 7 Z"
       fill="currentColor"
       id="path5" />
    <path
       d="M 0,10 V 32 H 22 V 10 Z"
       fill="none"
       id="path7" />
  </g>
  <g
     id="system-save-session"
     transform="translate(-53,100)">
    <path
       class="ColorScheme-Text"
       d="M 26,4 V 28 H 50 V 10 L 44,4 Z m 1,1 h 5 v 8 H 43 V 5 h 0.58594 l 5.4141,5.4141 v 16.586 h -4 v -8 h -14 v 8 h -4 v -22 z m 6,0 h 6 v 7 h -6 z m -1,15 h 12 v 7 H 32 Z"
       fill="currentColor"
       id="path10" />
    <path
       d="M 22,0 V 32 H 54 V 0 Z"
       fill="none"
       id="path12" />
  </g>
  <g
     id="22-22-system-users"
     transform="translate(4,100.0059)">
    <path
       class="ColorScheme-Text"
       d="m 14,13 c -1.662,0 -3,1.338 -3,3 0,1.662 1.338,3 3,3 1.662,0 3,-1.338 3,-3 0,-1.662 -1.338,-3 -3,-3 z m -6,3 c -1.662,0 -3,1.338 -3,3 0,1.662 1.338,3 3,3 1.662,0 3,-1.338 3,-3 0,-1.662 -1.338,-3 -3,-3 z m 6,4 c -0.64635,0 -1.256,0.13409 -1.8184,0.36133 l 0.45508,0.91406 C 13.0645,21.11489 13.51444,21 13.99998,21 c 2.216,0 4,1.784 4,4 h -3.5 l 0.5,1 h 4 v -1 c 0,-2.77 -2.23,-5 -5,-5 z m -6,3 c -2.77,0 -5,2.23 -5,5 v 1 h 10 v -1 c 0,-2.77 -2.23,-5 -5,-5 z m 0,1 c 2.216,0 4,1.784 4,4 H 4 c 0,-2.216 1.784,-4 4,-4 z"
       fill="currentColor"
       id="path15" />
    <path
       d="M 0,10 V 32 H 22 V 10 Z"
       fill="none"
       id="path17" />
  </g>
  <g
     id="system-users"
     transform="translate(4,100.0059)">
    <path
       class="ColorScheme-Text"
       d="M 42.5,4 A 4.5,4.5 0 0 0 38,8.5 4.5,4.5 0 0 0 42.5,13 4.5,4.5 0 0 0 47,8.5 4.5,4.5 0 0 0 42.5,4 Z m 0,1 A 3.5,3.5 0 0 1 46,8.5 3.5,3.5 0 0 1 42.5,12 3.5,3.5 0 0 1 39,8.5 3.5,3.5 0 0 1 42.5,5 Z m -9,4 C 31.0147,9 29,11.0147 29,13.5 29,15.9853 31.0147,18 33.5,18 35.9853,18 38,15.9853 38,13.5 38,11.0147 35.9853,9 33.5,9 Z m 0,1 A 3.5,3.5 0 0 1 37,13.5 3.5,3.5 0 0 1 33.5,17 3.5,3.5 0 0 1 30,13.5 3.5,3.5 0 0 1 33.5,10 Z m 9,4 c -0.88285,0.003 -1.7583,0.17228 -2.5859,0.5 -0.06618,0.42368 -0.17413,0.83977 -0.32226,1.2422 0.90271,-0.48731 1.8984,-0.74142 2.9082,-0.74219 3.5899,0 6.5,3.134 6.5,7 h -8.3418 c 0.17032,0.32329 0.3255,0.65711 0.46484,1 h 8.877 v -1 c 0,-4.4183 -3.3579,-8 -7.5,-8 z m -9,5 C 29.3579,19 26,22.5817 26,27 v 1 h 15 v -1 c 0,-4.4183 -3.3579,-8 -7.5,-8 z m 0,1 c 3.5899,0 6.5,3.134 6.5,7 H 27 c 0,-3.866 2.9101,-7 6.5,-7 z"
       fill="currentColor"
       id="path20" />
    <path
       d="M 22,0 V 32 H 54 V 0 Z"
       fill="none"
       id="path22" />
  </g>
  <g
     id="22-22-system-search"
     transform="translate(-167,100.0059)">
    <path
       class="ColorScheme-Text"
       d="m 9,13 c -3.324,0 -6,2.676 -6,6 0,3.324 2.676,6 6,6 1.4812,0 2.8306,-0.53468 3.875,-1.418 l 5.418,5.418 0.70703,-0.70703 -5.418,-5.418 c 0.88329,-1.0444 1.418,-2.3938 1.418,-3.875 0,-3.324 -2.676,-6 -6,-6 z m 0,1 c 2.77,0 5,2.23 5,5 0,2.77 -2.23,5 -5,5 -2.77,0 -5,-2.23 -5,-5 0,-2.77 2.23,-5 5,-5 z"
       fill="currentColor"
       id="path25" />
    <path
       d="M 0,10 V 32 H 22 V 10 Z"
       fill="none"
       id="path27" />
  </g>
  <g
     id="system-search"
     transform="translate(-167,100.0059)">
    <path
       class="ColorScheme-Text"
       d="m 35,4 a 9,9 0 0 0 -9,9 9,9 0 0 0 9,9 9,9 0 0 0 5.9941,-2.2988 L 49.2929,28 l 0.70703,-0.70703 -8.3008,-8.3008 a 9,9 0 0 0 2.3008,-5.9922 9,9 0 0 0 -9,-9 z m 0,1 a 8,8 0 0 1 8,8 8,8 0 0 1 -8,8 8,8 0 0 1 -8,-8 8,8 0 0 1 8,-8 z"
       fill="currentColor"
       id="path30" />
    <path
       d="M 22,0 V 32 H 54 V 0 Z"
       fill="none"
       id="path32" />
  </g>
  <g
     id="system-user-list"
     transform="translate(-110,100.0059)">
    <path
       class="ColorScheme-Text"
       d="m 45,9 c -0.58947,0 -1.133,0.17457 -1.5938,0.46875 0.04318,0.46425 0.0075,0.92267 -0.008,1.3359 0.37711,-0.50585 0.9708,-0.80409 1.6018,-0.80463 1.1046,0 2,0.89543 2,2 0,1.10457 -0.89543,2 -2,2 -1.0405,-5.56e-4 -1.9068,-0.7989 -1.9922,-1.8359 -0.18434,0.41948 -0.46466,0.77032 -0.6956,1.0996 -10e-4,0.0013 -0.003,0.0026 -0.004,0.0039 0.476,1.0197 1.4888,1.7324 2.6918,1.7324 1.6612,0 2.998,-1.338 2.998,-3 0,-1.662 -1.3369,-3 -2.998,-3 z m -7,9 c 4.432,0 8,3.568 8,8 H 30 c 0,-4.432 3.568,-8 8,-8 z m 1e-5,-1 c -4.9856,0 -9,3.7166 -9,8.3333 V 27 h 18 v -1.6667 c 0,-4.6167 -4.0144,-8.3333 -9,-8.3333 z m 6.9765,-1 c -1.2619,4.88e-4 -2.3962,0.47884 -3.2754,1.2402 0.38003,0.15615 0.76608,0.33575 1.1424,0.50783 0.005,0.0025 0.009,0.0052 0.0137,0.0078 0.61531,-0.44993 1.3332,-0.75586 2.1173,-0.75586 2.2269,5e-5 4.0234,2.338 4.0234,4 h -2.7285 c 0.19616,0.3391 0.30158,0.64811 0.449,1 h 3.2815 v -1 c 0,-2.7694 -2.2402,-4.9989 -5.0215,-5 z M 37.99991,6 c 2.2092,0 4,1.7909 4,4 0,2.2091 -1.7908,4 -4,4 -2.2092,0 -4,-1.7909 -4,-4 0,-2.2091 1.7908,-4 4,-4 z m 0,-1 c -2.7614,0 -5,2.2386 -5,5 0,2.7614 2.2386,5 5,5 2.3508,0 4.3227,-1.6223 4.8571,-3.8084 0.09336,-0.38187 0.14286,-0.78094 0.14286,-1.1916 0,-2.7614 -2.2386,-5 -5,-5 z m -6.9766,11 c 1.2619,4.88e-4 2.3962,0.47884 3.2754,1.2402 -0.40446,0.16292 -0.80548,0.35541 -1.1561,0.51561 -0.61531,-0.44991 -1.3332,-0.75584 -2.1173,-0.75584 -2.2269,5e-5 -4.0234,2.338 -4.0234,4 h 2.7285 c -0.18697,0.33326 -0.31833,0.6897 -0.449,1 h -3.2815 v -1 c 0,-2.7694 2.2402,-4.9989 5.0215,-5 z M 30.99792,9 c 0.58947,0 1.133,0.17457 1.5938,0.46875 -0.04841,0.46007 -0.0093,0.92754 0.008,1.3359 -0.37711,-0.50585 -0.9708,-0.80409 -1.6018,-0.80463 -1.1046,0 -2,0.89543 -2,2 0,1.10457 0.89543,2 2,2 1.0405,-5.56e-4 1.9068,-0.7989 1.9922,-1.8359 0.18831,0.40268 0.47165,0.77011 0.6956,1.0996 10e-4,0.0013 0.003,0.0026 0.004,0.0039 -0.476,1.0197 -1.4888,1.7324 -2.6918,1.7324 -1.6612,0 -2.998,-1.338 -2.998,-3 0,-1.662 1.3369,-3 2.998,-3 z"
       fill="currentColor"
       id="path35" />
    <path
       d="M 22,0 V 32 H 54 V 0 Z"
       fill="none"
       id="path37" />
  </g>
  <g
     id="system-user-prompt"
     transform="translate(61.00009,100.00585)">
    <path
       d="M 22,0 V 32 H 54 V 0 Z"
       fill="none"
       id="path40" />
    <path
       class="ColorScheme-Text"
       d="m 37,10.75 v 1.5 h 5 v -1.5 z m -4,0 v 1.5 h 3 v -1.5 z m -6,0 v 1.5 h 5 v -1.5 z M 26,9 h 24 v 5 H 26 Z M 25,8 v 7 H 51 V 8 Z m 1,10 h 24 v 5 H 26 Z m -1,-1 v 7 h 26 v -7 z m 3.5,2 C 27.67157,19 27,19.67157 27,20.5 27,21.32843 27.67157,22 28.5,22 29.32843,22 30,21.32843 30,20.5 30,19.67157 29.32843,19 28.5,19 Z m 4,0 C 31.67157,19 31,19.67157 31,20.5 31,21.32843 31.67157,22 32.5,22 33.32843,22 34,21.32843 34,20.5 34,19.67157 33.32843,19 32.5,19 Z m 4,0 C 35.67157,19 35,19.67157 35,20.5 35,21.32843 35.67157,22 36.5,22 37.32843,22 38,21.32843 38,20.5 38,19.67157 37.32843,19 36.5,19 Z m 4,0 C 39.67157,19 39,19.67157 39,20.5 39,21.32843 39.67157,22 40.5,22 41.32843,22 42,21.32843 42,20.5 42,19.67157 41.32843,19 40.5,19 Z"
       fill="currentColor"
       id="path42" />
  </g>
  <g
     id="22-22-system-user-prompt"
     transform="matrix(0.6875,0,0,0.6875,45.875094,110.00585)">
    <path
       class="ColorScheme-Text"
       d="M 35.818,21.091 A 0.72727,0.72727 0 0 1 35.09073,21.81827 0.72727,0.72727 0 0 1 34.36346,21.091 0.72727,0.72727 0 0 1 35.09073,20.36373 0.72727,0.72727 0 0 1 35.818,21.091 Z m -2.1818,0 A 0.72727,0.72727 0 0 1 32.90893,21.81827 0.72727,0.72727 0 0 1 32.18166,21.091 0.72727,0.72727 0 0 1 32.90893,20.36373 0.72727,0.72727 0 0 1 33.6362,21.091 Z m -2.1818,0 A 0.72727,0.72727 0 0 1 30.72713,21.81827 0.72727,0.72727 0 0 1 29.99986,21.091 0.72727,0.72727 0 0 1 30.72713,20.36373 0.72727,0.72727 0 0 1 31.4544,21.091 Z m -2.1818,0 A 0.72727,0.72727 0 0 1 28.54533,21.81827 0.72727,0.72727 0 0 1 27.81806,21.091 0.72727,0.72727 0 0 1 28.54533,20.36373 0.72727,0.72727 0 0 1 29.2726,21.091 Z m 5.8182,-10.909 h 2.9091 v 1.4545 h -2.9091 z m -2.9091,0 h 1.4545 v 1.4545 h -1.4545 z m -4.3636,0 h 2.9091 v 1.4545 h -2.9091 z m -2.9091,7.2727 v 7.2727 h 26.182 v -7.2727 z m 1.4545,1.4545 h 23.273 v 4.3636 H 26.3635 Z M 24.909,7.2732 v 7.2727 H 51.091 V 7.2732 Z m 1.4545,1.4545 h 23.273 v 4.3636 h -23.273 z"
       fill="currentColor"
       id="path45" />
    <path
       d="M 22,0 V 32 H 54 V 0 Z"
       fill="none"
       id="path47" />
  </g>
  <g
     id="22-22-system-user-list"
     transform="matrix(0.6875,0,0,0.6875,-125.125,110.0059)">
    <path
       class="ColorScheme-Text"
       d="m 44.552,10.182 c -0.37453,0 -0.72044,0.10364 -1.0284,0.26989 1.89e-4,0.0019 -0.09527,0.05843 -0.09498,0.06047 0.11476,1.4527 -0.24945,2.3769 -0.66509,3.0986 0.39606,0.5635 1.0484,0.93468 1.7885,0.93468 1.0258,0 1.8861,-0.70799 2.1193,-1.6619 0.04073,-0.16664 0.06255,-0.3407 0.06255,-0.51989 -1.4e-5,-1.205 -0.97684,-2.1818 -2.1818,-2.1818 z m -13.098,0 c 0.37453,0 0.72044,0.10364 1.0284,0.26989 -1.89e-4,0.0019 0.09527,0.05843 0.09498,0.06047 -0.11476,1.4527 0.24946,2.3769 0.66509,3.0986 -0.39606,0.5635 -1.0484,0.93468 -1.7885,0.93468 -1.0258,0 -1.8861,-0.70799 -2.1193,-1.6619 -0.04073,-0.16664 -0.06254,-0.3407 -0.06254,-0.51989 1.4e-5,-1.205 0.97684,-2.1818 2.1818,-2.1818 z m -4.4e-5,5.8182 c 1.2265,0 2.3022,0.56552 2.9602,1.4773 -0.36926,0.19574 -0.745,0.43622 -1.071,0.63066 -0.35836,-0.42266 -1.025,-0.65339 -1.8893,-0.65339 -1.3095,0 -2.1818,0.9608 -2.1818,2.9091 h 1.8182 l -0.72727,1.4545 h -2.5455 l 1e-6,-2.2102 c 1e-6,-2.093 1.622,-3.608 3.6364,-3.608 z m 13.091,1.4e-5 c -1.2265,0 -2.3022,0.56552 -2.9602,1.4773 0.36926,0.19574 0.745,0.43622 1.071,0.63066 0.35836,-0.42266 1.025,-0.65339 1.8893,-0.65339 1.3095,0 2.1818,0.99389 2.1818,2.9091 h -1.8182 l 0.72727,1.4545 h 2.5455 l 2e-6,-2.2102 c 2e-6,-2.093 -1.622,-3.608 -3.6364,-3.608 z m -6.5455,2.9091 c 2.9091,0 5.8182,1.4545 5.8182,5.8182 h -11.636 c 0,-4.3636 2.9091,-5.8182 5.8182,-5.8182 z m 0,-1.4545 c -4.2302,0 -7.2612,2.9743 -7.2698,7.2727 l -0.0029,1.4545 h 14.545 l -0.0029,-1.4545 c -0.0087,-4.3213 -3.0396,-7.2727 -7.2698,-7.2727 z m 7.5e-5,-11.636 c -2.8117,0 -5.091,2.2793 -5.091,5.0909 0,2.8116 2.2793,5.0909 5.091,5.0909 2.3936,0 4.4013,-1.6518 4.9455,-3.8777 0.09498,-0.38881 0.14547,-0.79514 0.14547,-1.2133 0,-2.8116 -2.2793,-5.0909 -5.091,-5.0909 z"
       fill="currentColor"
       id="path50" />
    <path
       d="M 22,0 V 32 H 54 V 0 Z"
       fill="none"
       id="path52" />
  </g>
  <g
     id="22-22-system-log-out"
     transform="matrix(-1,0,0,1,27,30)">
    <path
       d="M 0,10 V 32 H 22 V 10 Z"
       fill="none"
       id="path62" />
    <path
       class="ColorScheme-Text"
       d="m 10.99,12 a 9,9 0 0 0 -8.9902,9 9,9 0 0 0 9,9 9,9 0 0 0 9,-9 9,9 0 0 0 -9,-9 9,9 0 0 0 -0.0098,0 z m -0.08594,2 a 7,7 0 0 1 0.002,0 7,7 0 0 1 0.09375,0 7,7 0 0 1 7,7 7,7 0 0 1 -7,7 7,7 0 0 1 -7,-7 7,7 0 0 1 6.9043,-7 z m 1.6309,2.4629 c -0.25562,0 -0.51116,0.09905 -0.70703,0.29492 l -3.5352,3.5352 v 0.002 c -0.19507,0.19566 -0.29297,0.44993 -0.29297,0.70503 v 0.002 c 2.45e-4,0.12717 0.023544,0.25331 0.072266,0.37305 v 0.002 c 0.048966,0.11979 0.12317,0.23254 0.2207,0.33008 v 0.002 l 3.5352,3.5352 c 0.39174,0.39174 1.0223,0.39174 1.4141,0 0.39174,-0.39174 0.39174,-1.0223 0,-1.4141 l -2.8281,-2.8302 2.8281,-2.8281 c 0.39174,-0.39174 0.39174,-1.0223 0,-1.4141 -0.19587,-0.19587 -0.45141,-0.29492 -0.70703,-0.29492 z"
       fill="currentColor"
       id="path64" />
  </g>
  <g
     id="22-22-system-suspend-hibernate"
     transform="translate(-184,-34)">
    <path
       d="M 0,74 V 96 H 22 V 74 Z"
       fill="none"
       id="path67" />
    <path
       class="ColorScheme-Text"
       d="m 10.99,76 c -4.9667,0.0054 -8.9902,4.0332 -8.9902,9 0,4.9706 4.0294,9 9,9 4.9706,10e-7 9,-4.0294 9,-9 0,-4.9706 -4.0294,-9 -9,-9 z m -0.08398,2 c 0.03125,-2.09e-4 0.0625,-2.09e-4 0.09375,0 3.5253,-10e-7 6.4332,2.6094 6.9199,6 h -13.842 c 0.48136,-3.3573 3.3391,-5.9533 6.8281,-6 z m -6.8262,8 h 13.84 c -0.4867,3.3906 -3.3946,6 -6.9199,6 -3.5253,-10e-7 -6.4332,-2.6094 -6.9199,-6 z"
       fill="currentColor"
       id="path69" />
  </g>
  <g
     id="22-22-system-switch-user"
     transform="translate(45,30)">
    <path
       d="M 54,10 V 32 H 76 V 10 Z"
       fill="none"
       id="path72" />
    <g
       class="ColorScheme-Text"
       transform="translate(-3,19)"
       fill="currentColor"
       id="g82">
      <rect
         x="60"
         y="-2"
         width="16"
         height="2"
         ry="1"
         id="rect74" />
      <rect
         transform="rotate(45)"
         x="45.325001"
         y="-54.740002"
         width="8"
         height="2"
         ry="1"
         id="rect76" />
      <rect
         transform="scale(-1)"
         x="-76"
         y="-6"
         width="16"
         height="2"
         ry="1"
         id="rect78" />
      <rect
         transform="rotate(-135)"
         x="-53.669998"
         y="38.598"
         width="8"
         height="2"
         ry="1"
         id="rect80" />
    </g>
  </g>
  <g
     id="22-22-system-reboot"
     transform="translate(-191,-34)">
    <path
       d="M 54,74 V 96 H 76 V 74 Z"
       fill="none"
       id="path85" />
    <path
       class="ColorScheme-Text"
       d="m 64.975,76 c -4.0939,0.005 -7.6686,2.7723 -8.6992,6.7344 l 0.01563,0.01563 c -0.02148,0.08177 -0.05078,0.16131 -0.05078,0.25 0,0.554 0.446,1 1,1 h 4.7441 c 0.554,0 1,-0.446 1,-1 0,-0.554 -0.446,-1 -1,-1 h -3.3184 c 1.13,-2.3826 3.5268,-3.9633 6.2246,-4 0.03125,-2.09e-4 0.0625,-2.09e-4 0.09375,0 3.0952,5.19e-4 5.8227,2.0338 6.707,5 h 2.0684 c -0.93337,-4.0952 -4.5752,-7.0002 -8.7754,-7 z m 3.041,10 c -0.554,0 -1,0.446 -1,1 0,0.554 0.446,1 1,1 h 3.3184 c -1.13,2.3826 -3.5268,3.9633 -6.2246,4 -0.03125,2.09e-4 -0.0625,2.09e-4 -0.09375,0 -3.0952,-5.19e-4 -5.8227,-2.0338 -6.707,-5 h -2.0684 c 0.93337,4.0952 4.5752,7.0002 8.7754,7 h 0.0098 c 4.0939,-0.005 7.6686,-2.7723 8.6992,-6.7344 l -0.01566,-0.01563 c 0.02148,-0.08177 0.05078,-0.16131 0.05078,-0.25 0,-0.554 -0.446,-1 -1,-1 z"
       fill="currentColor"
       id="path87" />
  </g>
  <g
     id="22-22-system-suspend"
     transform="translate(-43.048275,-65.97)">
    <path
       d="m 0.048275,105.97 v 22 h 22 v -22 z"
       fill="none"
       id="path90" />
    <path
       class="ColorScheme-Text"
       d="m 12.71,114.1 h 1.715 l -0.032,0.9 h -3.397 l 1.714,-2.7 h -1.714 v -0.9 h 3.429 z m 4.573,-2.4 H 19 l -0.032,0.9 h -3.401 l 1.716,-2.7 H 15.567 V 109 H 19 Z"
       fill="currentColor"
       id="path92" />
    <path
       class="ColorScheme-Text"
       d="m 4.6298,110.64 c -3.5063,3.5063 -3.5063,9.2216 0,12.728 3.5063,3.5063 9.2216,3.5063 12.728,0 0.53741,-0.53708 1.0048,-1.1396 1.3907,-1.794 a 1.0001,1.0001 0 0 0 -1.37,-1.37 c -2.754,1.6246 -6.2449,1.1823 -8.506,-1.0786 -2.2605,-2.2601 -2.7041,-5.7492 -1.0814,-8.5032 a 1.0001,1.0001 0 0 0 -1.37,-1.37 c -0.65321,0.38517 -1.2549,0.85187 -1.7912,1.388 z m 0.32455,3.0535 c -0.13155,2.4894 0.6528,4.9952 2.5039,6.846 1.8512,1.851 4.3564,2.6359 6.846,2.5039 -2.6584,1.4597 -6.0026,1.1679 -8.2602,-1.0897 -2.2575,-2.2575 -2.5494,-5.6018 -1.0897,-8.2602 z"
       fill="currentColor"
       id="path94" />
  </g>
  <g
     id="22-22-system-shutdown"
     transform="translate(-90,-2)">
    <path
       d="M 0,42 V 64 H 22 V 42 Z"
       fill="none"
       id="path97" />
    <path
       class="ColorScheme-Text"
       d="m 5.3431,47.343 a 8,8 0 0 0 0,11.314 8,8 0 0 0 11.314,0 8,8 0 0 0 0,-11.314 1,1 0 0 0 -1.4142,0 1,1 0 0 0 0,1.4142 6,6 0 0 1 0,8.4853 6,6 0 0 1 -8.4853,0 6,6 0 0 1 0,-8.4853 1,1 0 0 0 0,-1.4142 1,1 0 0 0 -1.4142,0 z"
       fill="currentColor"
       id="path99" />
    <rect
       class="ColorScheme-Text"
       x="10"
       y="44"
       width="2"
       height="8"
       ry="1"
       fill="currentColor"
       id="rect101" />
  </g>
  <g
     id="22-22-system-lock-screen"
     transform="translate(-2,-66)">
    <path
       d="m 54,106 v 22 h 22 v -22 z"
       fill="none"
       id="path104" />
    <path
       class="ColorScheme-Text"
       d="m 59,117 c -1.108,0 -2,0.892 -2,2 v 5 c 0,1.108 0.892,2 2,2 h 12 c 1.108,0 2,-0.892 2,-2 v -5 c 0,-1.108 -0.892,-2 -2,-2 z m 0,2 h 12 v 5 H 59 Z"
       fill="currentColor"
       id="path106" />
    <path
       class="ColorScheme-Text"
       d="m 65,108 c -2.216,0 -4,1.784 -4,4 v 5 h 2 v -5 c 0,-1.108 0.892,-2 2,-2 1.108,0 2,0.892 2,2 v 5 h 2 v -5 c 0,-2.216 -1.784,-4 -4,-4 z"
       fill="currentColor"
       id="path108" />
  </g>
  <g
     id="system-suspend">
    <circle
       cx="-32"
       cy="16"
       r="16"
       opacity="0"
       id="circle148" />
    <circle
       style="fill:#ffffff;fill-opacity:1;stroke-width:5.57143;stroke-linecap:round;stroke-opacity:0.996078;paint-order:stroke fill markers"
       id="path1002"
       cx="-32"
       cy="16"
       r="13" />
    <path
       d="M -32.000001,3 A 13,13 0 1 0 -19,15.999998 13,13 0 0 0 -32.000001,3 Z m 4.766667,3.8729153 2.220834,-1.2404163 a 0.34125001,0.34125001 0 0 1 0.400833,0.048745 0.38458337,0.38458337 0 0 1 0.108333,0.4116673 l -0.69875,2.1287479 1.505833,-0.7799968 a 0.34666668,0.34666668 0 0 1 0.476667,0.1679152 0.3791667,0.3791667 0 0 1 -0.1625,0.50375 l -2.285833,1.1916674 a 0.35750001,0.35750001 0 0 1 -0.1625,0.037918 0.36291667,0.36291667 0 0 1 -0.238333,-0.092082 0.39000002,0.39000002 0 0 1 -0.0975,-0.40625 l 0.687916,-2.0962521 -1.41375,0.7800011 a 0.35208336,0.35208336 0 0 1 -0.4875,-0.1570837 0.39000002,0.39000002 0 0 1 0.173333,-0.4983327 z m -3.076667,2.1666663 1.565417,-0.8720837 a 0.34666668,0.34666668 0 0 1 0.400833,0.048745 0.3791667,0.3791667 0 0 1 0.102918,0.40625 l -0.411666,1.2620847 0.622916,-0.3141684 a 0.34666668,0.34666668 0 0 1 0.476668,0.17875 0.3791667,0.3791667 0 0 1 -0.167918,0.4983328 l -1.3975,0.704168 a 0.31416667,0.31416667 0 0 1 -0.151666,0.03792 0.35750001,0.35750001 0 0 1 -0.238334,-0.09208 0.39000002,0.39000002 0 0 1 -0.102918,-0.40625 l 0.395416,-1.2079152 -0.758333,0.4225 a 0.34666668,0.34666668 0 0 1 -0.482083,-0.1570837 0.38458337,0.38458337 0 0 1 0.14625,-0.487501 z m -3.537084,8.5583354 a 5.0320835,5.0320835 0 0 1 -3.109166,-0.861251 0.54166673,0.54166673 0 0 1 0.677083,-0.812501 4.1437503,4.1437503 0 0 0 2.432083,0.633751 4.3333336,4.3333336 0 0 0 2.464584,-0.644585 0.54166673,0.54166673 0 0 1 0.65,0.834168 5.2704172,5.2704172 0 0 1 -3.114584,0.872084 z m 4.474168,8.076249 a 2.1666668,2.1666668 0 1 1 2.166666,-2.166666 2.1666668,2.1666668 0 0 1 -2.166666,2.166666 z m 4.7125,-8.054583 a 5.0429173,5.0429173 0 0 1 -3.109167,-0.882917 0.54166673,0.54166673 0 0 1 0.677083,-0.812501 4.1437503,4.1437503 0 0 0 2.432084,0.633751 4.3333336,4.3333336 0 0 0 2.464583,-0.644585 0.54166673,0.54166673 0 1 1 0.65,0.834168 5.2595835,5.2595835 0 0 1 -3.125416,0.872084 z"
       p-id="5532"
       id="path953"
       style="fill:#ffcc00;fill-opacity:1;stroke-width:0.0485334" />
    <path
       d="m -21.17792,7.158666 a 0.31848509,0.31848509 0 0 1 -0.226022,-0.09247 0.38012736,0.38012736 0 0 1 -0.0976,-0.385263 l 0.904087,-2.737945 -1.900637,1.058191 a 0.33389565,0.33389565 0 0 1 -0.462317,-0.148967 0.36985364,0.36985364 0 0 1 0.138695,-0.482865 l 2.666028,-1.48455 a 0.32362193,0.32362193 0 0 1 0.380128,0.04109 0.36985364,0.36985364 0 0 1 0.102737,0.390401 l -0.919497,2.789313 1.64893,-0.827035 a 0.33389565,0.33389565 0 0 1 0.452044,0.164382 0.3647168,0.3647168 0 0 1 -0.159243,0.477727 l -2.378364,1.202024 a 0.39553795,0.39553795 0 0 1 -0.148969,0.03596 z m 0,0"
       p-id="5533"
       id="path955"
       style="fill:#ffcc00;fill-opacity:1;stroke-width:0.0460263" />
  </g>
  <g
     id="system-reboot">
    <path
       d="m -126,0 c -8.8286,0 -16,7.1714 -16,16 0,8.8286 7.1714,16 16,16 8.8275,0 16,-7.1714 16,-16 0,-8.8275 -7.1714,-16 -16,-16 z"
       opacity="0"
       id="path122" />
    <path
       d="m -128.85621,8.1156603 c 1.0099,0 1.83415,0.70885 1.83415,1.57641 V 14.35328 c 0,-0.86757 0.82483,-1.57641 1.83415,-1.57641 1.0099,0 1.83473,0.70884 1.83473,1.57641 v 1.12234 c 0,-0.86757 0.82484,-1.57641 1.83416,-1.57641 1.00991,0 1.83415,0.70884 1.83415,1.57641 v 1.83477 l 0.003,-0.0877 c 0.0544,-0.79476 0.8,-1.43499 1.72418,-1.48153 l 0.1076,-0.002 c 1.00932,0 1.83416,0.71302 1.85012,1.57223 l -0.49963,5.15108 c -0.31929,1.72677 -0.66578,2.86582 -1.03947,3.41714 -1.64139,2.4219 -4.64155,3.1206 -6.66964,3.1206 -3.61685,0 -6.73468,-2.48156 -8.13128,-3.9625 l -3.2077,-3.62419 c -0.5552,-0.47257 -0.67287,-1.78048 0.0674,-2.41653 0.35655,-0.3049 0.79882,-0.43915 1.31146,-0.43915 0.51264,0 0.78463,0.0656 1.31205,0.29953 l 1.3156,0.64918 a 0.59127995,0.59667272 0 0 0 0.85085,-0.53641 V 9.6924803 c 0,-0.86757 0.82484,-1.57641 1.83475,-1.57641 z m 5.76498,-1.15218 a 5.4356368,5.4852125 0 0 1 -0.1431,3.6116597 1.18256,1.1933455 0 0 1 -2.23503,-0.7738797 l 0.0313,-0.0925 a 3.0722907,3.1003115 0 0 0 0.0857,-2.04778 c -0.52269,-1.72378 -2.45854,-2.68622 -4.34709,-2.10386 -1.88914,0.58295 -2.96054,2.4738 -2.43844,4.19759 a 1.18256,1.1933455 0 1 1 -2.26165,0.6981097 c -0.91411,-3.0179797 0.90052,-6.2197197 4.0077,-7.1785697 3.10777,-0.95886 6.38641,0.67185 7.30054,3.68863 z"
       p-id="11754"
       id="path1014"
       style="fill:#458aff;fill-opacity:1;stroke-width:0.0255221" />
  </g>
  <g
     id="system-shutdown">
    <path
       d="m -79,0 c -8.8286,0 -16,7.1714 -16,16 0,8.8286 7.1714,16 16,16 8.8286,0 16,-7.1714 16,-16 0,-8.8286 -7.1714,-16 -16,-16 z"
       opacity="0"
       id="path137" />
    <g
       id="g1041"
       transform="translate(78,33)">
      <circle
         style="opacity:0.3;fill:#ff4e5e;fill-opacity:1;stroke-width:3.54545;stroke-linecap:round;stroke-opacity:0.996078;paint-order:stroke fill markers"
         id="path1035"
         cx="-157"
         cy="-17"
         r="13" />
      <circle
         style="opacity:1;fill:#ff4e5e;fill-opacity:1;stroke-width:2.18182;stroke-linecap:round;stroke-opacity:0.996078;paint-order:stroke fill markers"
         id="circle1037"
         cx="-157"
         cy="-17"
         r="8" />
    </g>
  </g>
  <g
     id="system-suspend-hibernate">
    <path
       d="m -173,0 c -8.8276,0 -16,7.1724 -16,16 0,8.8276 7.1724,16 16,16 8.8276,0 16,-7.1724 16,-16 0,-8.8276 -7.1724,-16 -16,-16 z"
       opacity="0"
       id="path111" />
    <g
       id="g1060"
       transform="translate(0,28)">
      <path
         id="rect1054"
         style="opacity:1;fill:#ff4e5e;fill-opacity:1;stroke-width:2.16334;stroke-linecap:round;stroke-opacity:0.996078;paint-order:stroke fill markers"
         d="M -178 8 C -182.432 8 -186 11.568 -186 16 C -186 20.432 -182.432 24 -178 24 L -168 24 C -163.568 24 -160 20.432 -160 16 C -160 11.568 -163.568 8 -168 8 L -178 8 z M -178 14 L -168 14 C -166.892 14 -166 14.892 -166 16 C -166 17.108 -166.892 18 -168 18 L -178 18 C -179.108 18 -180 17.108 -180 16 C -180 14.892 -179.108 14 -178 14 z "
         transform="translate(0,-28)" />
      <rect
         style="opacity:0.3;fill:#ff4e5e;fill-opacity:1;stroke-width:0.793733;stroke-linecap:round;stroke-opacity:0.996078;paint-order:stroke fill markers"
         id="rect1056"
         width="14"
         height="4"
         x="-180"
         y="-14"
         ry="2" />
    </g>
  </g>
  <g
     id="system-log-out">
    <g
       id="g1127"
       transform="translate(-147,108)">
      <rect
         style="fill:#ffcc00;fill-opacity:1;stroke-width:4.0452;stroke-linecap:round;paint-order:stroke fill markers"
         id="rect1105"
         width="16"
         height="5"
         x="155"
         y="-85"
         ry="2" />
      <path
         id="path1107"
         style="fill:#ffcc00;fill-opacity:1;stroke:none;stroke-width:3.20001;stroke-linecap:round;paint-order:stroke fill markers"
         d="m 163,-92 a 8,8 0 0 0 -8,8 h 16 a 8,8 0 0 0 -8,-8 z" />
      <path
         id="path1109"
         style="fill:#ffffff;fill-opacity:1;stroke:none;stroke-width:2.80001;stroke-linecap:round;paint-order:stroke fill markers"
         d="M 162.90625,-91 A 7,7 0 0 0 156,-84 h 14 a 7,7 0 0 0 -7,-7 7,7 0 0 0 -0.0937,0 z" />
      <rect
         style="fill:#ffcc00;fill-opacity:1;stroke:none;stroke-width:3;stroke-linecap:round;paint-order:stroke fill markers"
         id="rect1111"
         width="16"
         height="1"
         x="155"
         y="-84"
         ry="0" />
      <g
         id="g1123"
         transform="translate(0,-1)">
        <rect
           style="fill:#ffcc00;fill-opacity:1;stroke-width:4.0452;stroke-linecap:round;paint-order:stroke fill markers"
           id="rect1113"
           width="16"
           height="5"
           x="155"
           y="98"
           ry="2"
           transform="scale(1,-1)" />
        <path
           id="path1115"
           style="fill:#ffcc00;fill-opacity:1;stroke:none;stroke-width:3.20001;stroke-linecap:round;paint-order:stroke fill markers"
           d="m 163,-91 a 8,8 0 0 1 -8,-8 h 16 a 8,8 0 0 1 -8,8 z" />
        <path
           id="path1117"
           style="fill:#ffffff;fill-opacity:1;stroke:none;stroke-width:2.80001;stroke-linecap:round;paint-order:stroke fill markers"
           d="M 162.90625,-92 A 7,7 0 0 1 156,-99 h 14 a 7,7 0 0 1 -7,7 7,7 0 0 1 -0.0937,0 z" />
        <rect
           style="fill:#ffcc00;fill-opacity:1;stroke:none;stroke-width:3;stroke-linecap:round;paint-order:stroke fill markers"
           id="rect1119"
           width="16"
           height="1"
           x="155"
           y="99"
           ry="0"
           transform="scale(1,-1)" />
        <rect
           style="fill:#ffcc00;fill-opacity:1;stroke:none;stroke-width:2.80624;stroke-linecap:round;paint-order:stroke fill markers"
           id="rect1121"
           width="14"
           height="1"
           x="156"
           y="98"
           ry="0"
           transform="scale(1,-1)" />
      </g>
      <rect
         style="fill:#ffcc00;fill-opacity:1;stroke:none;stroke-width:2.80624;stroke-linecap:round;paint-order:stroke fill markers"
         id="rect1125"
         width="14"
         height="1"
         x="156"
         y="-85"
         ry="0" />
    </g>
    <path
       d="M 16,0 C 7.1724,0 0,7.1724 0,16 0,24.8276 7.1724,32 16,32 24.8276,32 32,24.8276 32,16 32,7.1724 24.8276,0 16,0 Z"
       opacity="0"
       id="path169" />
  </g>
  <g
     id="g1276"
     transform="translate(-21.5,4)">
    <g
       id="g1238">
      <rect
         style="fill:#ffcc00;fill-opacity:1;stroke-width:3.50325;stroke-linecap:round;paint-order:stroke fill markers"
         id="rect1144"
         width="15"
         height="4"
         x="30"
         y="-13"
         ry="2" />
      <rect
         style="fill:#ffcc00;fill-opacity:1;stroke:none;stroke-width:2.90474;stroke-linecap:round;paint-order:stroke fill markers"
         id="rect1150"
         width="15"
         height="1"
         x="30"
         y="-12"
         ry="0" />
      <rect
         style="fill:#ffcc00;fill-opacity:1;stroke:none;stroke-width:2.24087;stroke-linecap:round;paint-order:stroke fill markers"
         id="rect1164"
         width="15"
         height="0.59513915"
         x="30"
         y="-12.59514"
         ry="0" />
      <path
         id="path1179"
         style="fill:#ffcc00;fill-opacity:1;stroke-width:5.28091;stroke-linecap:round;stroke-opacity:0.996078;paint-order:stroke fill markers"
         d="m 37.462891,-19.999977 a 7.5,7.5 0 0 0 -7.462891,7.5 h 15 a 7.5,7.5 0 0 0 -7.5,-7.5 7.5,7.5 0 0 0 -0.03711,0 z" />
      <path
         id="circle1185"
         style="fill:#ffffff;fill-opacity:1;stroke-width:4.57679;stroke-linecap:round;stroke-opacity:0.996078;paint-order:stroke fill markers"
         d="m 37.5,-18.958961 a 6.5,6.5 0 0 0 -6.5,6.458984 h 13 a 6.5,6.5 0 0 0 -6.5,-6.458984 z" />
      <rect
         style="fill:#ffcc00;fill-opacity:1;stroke:none;stroke-width:3.96864;stroke-linecap:round;paint-order:stroke fill markers"
         id="rect1307"
         width="14"
         height="1.9999987"
         x="30.5"
         y="-14"
         ry="0" />
    </g>
    <g
       id="g1262"
       transform="translate(0,0.47378205)">
      <rect
         style="fill:#ffcc00;fill-opacity:1;stroke-width:3.50325;stroke-linecap:round;paint-order:stroke fill markers"
         id="rect1240"
         width="15"
         height="4"
         x="30"
         y="27.473782"
         ry="2"
         transform="scale(1,-1)" />
      <rect
         style="fill:#ffcc00;fill-opacity:1;stroke:none;stroke-width:2.90474;stroke-linecap:round;paint-order:stroke fill markers"
         id="rect1242"
         width="15"
         height="1"
         x="30"
         y="28.473782"
         ry="0"
         transform="scale(1,-1)" />
      <rect
         style="fill:#ffcc00;fill-opacity:1;stroke:none;stroke-width:2.24087;stroke-linecap:round;paint-order:stroke fill markers"
         id="rect1244"
         width="15"
         height="0.59513915"
         x="30"
         y="27.878641"
         ry="0"
         transform="scale(1,-1)" />
      <path
         id="path1246"
         style="fill:#ffcc00;fill-opacity:1;stroke-width:5.28091;stroke-linecap:round;stroke-opacity:0.996078;paint-order:stroke fill markers"
         d="M 37.462891,-20.473805 A 7.5,7.5 0 0 1 30,-27.973805 h 15 a 7.5,7.5 0 0 1 -7.5,7.5 7.5,7.5 0 0 1 -0.03711,0 z" />
      <path
         id="path1248"
         style="fill:#ffffff;fill-opacity:1;stroke-width:4.57679;stroke-linecap:round;stroke-opacity:0.996078;paint-order:stroke fill markers"
         d="M 37.5,-21.514821 A 6.5,6.5 0 0 1 31,-27.973805 h 13 a 6.5,6.5 0 0 1 -6.5,6.458984 z" />
      <rect
         style="fill:#ffcc00;fill-opacity:1;stroke:none;stroke-width:3.96864;stroke-linecap:round;paint-order:stroke fill markers"
         id="rect1309"
         width="14"
         height="1.9999976"
         x="30.5"
         y="26.473782"
         ry="0"
         transform="scale(1,-1)" />
    </g>
  </g>
  <g
     id="system-lock-screen">
    <path
       d="M 63,0 C 54.1724,0 47,7.1724 47,16 47,24.8276 54.1724,32 63,32 71.8276,32 79,24.8276 79,16 79,7.1724 71.8276,0 63,0 Z"
       opacity="0"
       id="path55" />
    <g
       id="g1395"
       transform="translate(-78,-1)">
      <path
         style="fill:#ff4e5e;fill-opacity:1;stroke:none;stroke-width:0.999433px;stroke-linecap:butt;stroke-linejoin:miter;stroke-opacity:1"
         d="m 140,6.0260585 c 0,0 0.0426,-1.2218639 -0.59122,-0.998867 C 138.77494,5.2501884 131,10.021527 131,10.021527 c 0,0 -1,0.656899 -1,1.997734 0,1.340835 0,9.98867 0,9.98867 0,0 0,1.238734 1,1.997734 1,0.759 6.38706,4.994335 7,4.994335 0.61294,0 2,0 2,0 V 17.673977 l -4,-3.085718 4,-3.92238 z"
         id="path1389" />
      <path
         style="fill:#ff4e5e;fill-opacity:1;stroke:none;stroke-width:0.999433px;stroke-linecap:butt;stroke-linejoin:miter;stroke-opacity:1"
         d="m 142.0003,6.0260585 c 0,0 -0.0426,-1.2218639 0.59122,-0.998867 0.63384,0.2229969 8.40878,4.9943355 8.40878,4.9943355 0,0 1,0.656899 1,1.997734 0,1.340835 0,9.98867 0,9.98867 0,0 0,1.238734 -1,1.997734 -1,0.759 -6.38706,4.994335 -7,4.994335 -0.61294,0 -2,0 -2,0 V 17.673977 l 4,-3.085718 -4,-3.92238 z"
         id="path1391" />
    </g>
  </g>
  <g
     id="system-switch-user">
    <circle
       transform="scale(1,-1)"
       cx="110"
       cy="-16"
       r="16"
       opacity="0"
       id="circle180" />
    <g
       id="g1431"
       transform="translate(-61,7)">
      <rect
         style="opacity:1;fill:#458aff;fill-opacity:1;stroke:none;stroke-width:2.7596;stroke-linecap:round;stroke-opacity:0.996078;paint-order:stroke fill markers"
         id="rect1409"
         width="20"
         height="11"
         x="161"
         y="11"
         ry="2" />
      <circle
         style="opacity:1;fill:#458aff;fill-opacity:1;stroke:none;stroke-width:3.6;stroke-linecap:round;stroke-opacity:0.996078;paint-order:stroke fill markers"
         id="path1411"
         cx="171"
         cy="3"
         r="6" />
      <path
         id="circle1413"
         style="opacity:1;fill:url(#linearGradient1426);fill-opacity:1;stroke:none;stroke-width:4.2;stroke-linecap:round;stroke-opacity:0.996078;paint-order:stroke fill markers"
         d="m 177.90625,17 a 7,7 0 0 0 -6.61328,5 H 179 c 1.108,0 2,-0.892 2,-2 V 17.675781 A 7,7 0 0 0 178,17 a 7,7 0 0 0 -0.0937,0 z" />
    </g>
  </g>
</svg>
