<?xml version="1.0" encoding="UTF-8" standalone="no"?>
<svg
   xmlns:dc="http://purl.org/dc/elements/1.1/"
   xmlns:cc="http://creativecommons.org/ns#"
   xmlns:rdf="http://www.w3.org/1999/02/22-rdf-syntax-ns#"
   xmlns:svg="http://www.w3.org/2000/svg"
   xmlns="http://www.w3.org/2000/svg"
   xmlns:sodipodi="http://sodipodi.sourceforge.net/DTD/sodipodi-0.dtd"
   xmlns:inkscape="http://www.inkscape.org/namespaces/inkscape"
   width="70"
   height="64"
   version="1.0"
   id="svg55"
   sodipodi:docname="computer.svg"
   inkscape:version="1.0.1 (3bc2e813f5, 2020-09-07)">
  <metadata
     id="metadata59">
    <rdf:RDF>
      <cc:Work
         rdf:about="">
        <dc:format>image/svg+xml</dc:format>
        <dc:type
           rdf:resource="http://purl.org/dc/dcmitype/StillImage" />
      </cc:Work>
    </rdf:RDF>
  </metadata>
  <sodipodi:namedview
     pagecolor="#ffffff"
     bordercolor="#666666"
     borderopacity="1"
     objecttolerance="10"
     gridtolerance="10"
     guidetolerance="10"
     inkscape:pageopacity="0"
     inkscape:pageshadow="2"
     inkscape:window-width="1920"
     inkscape:window-height="946"
     id="namedview57"
     showgrid="true"
     inkscape:snap-nodes="true"
     inkscape:snap-bbox="true"
     inkscape:bbox-nodes="true"
     inkscape:snap-bbox-edge-midpoints="true"
     inkscape:zoom="8.6068154"
     inkscape:cx="42.296695"
     inkscape:cy="42.611193"
     inkscape:window-x="0"
     inkscape:window-y="38"
     inkscape:window-maximized="1"
     inkscape:current-layer="svg55">
    <inkscape:grid
       type="xygrid"
       id="grid884" />
  </sodipodi:namedview>
  <defs
     id="defs3">
    <style
       id="current-color-scheme"
       type="text/css">.ColorScheme-Text { color:#363636; }</style>
  </defs>
  <g
     id="16-16-computer">
    <rect
       y="48"
       width="16"
       height="16"
       rx="0"
       ry="0"
       fill="none"
       id="rect5" />
    <path
       class="ColorScheme-Text"
       d="m4.5 62h7c0.277 0 0.5 0.223 0.5 0.5s-0.223 0.5-0.5 0.5h-7c-0.277 0-0.5-0.223-0.5-0.5s0.223-0.5 0.5-0.5z"
       fill="currentColor"
       id="path7" />
    <path
       class="ColorScheme-Text"
       d="m2 50c-1.108 0-2 0.892-2 2v7c0 1.108 0.892 2 2 2h12c1.108 0 2-0.892 2-2v-7c0-1.108-0.892-2-2-2zm0 1h12c0.554 0 1 0.446 1 1v7c0 0.554-0.446 1-1 1h-12c-0.554 0-1-0.446-1-1v-7c0-0.554 0.446-1 1-1z"
       fill="currentColor"
       id="path9" />
  </g>
  <g
     id="22-22-computer"
     class="ColorScheme-Text"
     fill="currentColor">
    <rect
       x="16"
       y="42"
       width="22"
       height="22"
       opacity="0"
       id="rect12" />
    <path
       d="m20 45c-1.662 0-3 1.338-3 3v9c0 1.662 1.338 3 3 3h14c1.662 0 3-1.338 3-3v-9c0-1.662-1.338-3-3-3zm0 1h14c1.108 0 2 0.892 2 2v9c0 1.108-0.892 2-2 2h-14c-1.108 0-2-0.892-2-2v-9c0-1.108 0.892-2 2-2z"
       id="path14" />
    <rect
       x="21"
       y="61"
       width="12"
       height="1"
       rx=".5"
       ry=".5"
       id="rect16" />
  </g>
  <g
     id="22-22-computer-laptop"
     transform="translate(0,-32)"
     class="ColorScheme-Text"
     fill="currentColor">
    <rect
       x="16"
       y="42"
       width="22"
       height="22"
       opacity="0"
       id="rect41" />
    <path
       d="m20 45c-1.662 0-3 1.338-3 3v9c0 1.662 1.338 3 3 3h14c1.662 0 3-1.338 3-3v-9c0-1.662-1.338-3-3-3zm0 1h14c1.108 0 2 0.892 2 2v9c0 1.108-0.892 2-2 2h-14c-1.108 0-2-0.892-2-2v-9c0-1.108 0.892-2 2-2z"
       id="path43" />
    <rect
       x="17"
       y="60"
       width="20"
       height="1"
       rx=".5"
       ry=".5"
       id="rect45" />
  </g>
  <g
     id="16-16-computer-laptop">
    <rect
       y="16"
       width="16"
       height="16"
       rx="0"
       ry="0"
       fill="none"
       opacity="0"
       id="rect48" />
    <path
       class="ColorScheme-Text"
       d="m2 18c-1.108 0-2 0.892-2 2v7c0 1.108 0.892 2 2 2h12c1.108 0 2-0.892 2-2v-7c0-1.108-0.892-2-2-2zm0 1h12c0.554 0 1 0.446 1 1v7c0 0.554-0.446 1-1 1h-12c-0.554 0-1-0.446-1-1v-7c0-0.554 0.446-1 1-1z"
       fill="currentColor"
       id="path50" />
    <rect
       y="29"
       width="16"
       height="1"
       rx=".5"
       ry=".5"
       class="ColorScheme-Text"
       fill="currentColor"
       id="rect52" />
  </g>
  <g
     id="computer-laptop">
    <rect
       x="38"
       y="0"
       width="32"
       height="32"
       opacity="0"
       id="rect30" />
    <g
       id="g909"
       transform="translate(-34,-35)">
      <rect
         style="fill:#ff4e5e;stroke-width:2.70338;stroke-linecap:round;paint-order:stroke fill markers"
         id="rect900"
         width="23.999998"
         height="18"
         x="76"
         y="44"
         ry="2" />
      <rect
         style="fill:#000000;fill-opacity:1;stroke-width:2.44027;stroke-linecap:round;paint-order:stroke fill markers"
         id="rect902"
         width="22.000002"
         height="16"
         x="77"
         y="45"
         ry="1" />
      <rect
         style="fill:#ffffff;fill-opacity:1;stroke-width:2.30269;stroke-linecap:round;paint-order:stroke fill markers"
         id="rect904"
         width="4"
         height="1"
         x="86"
         y="59"
         ry="0.5" />
    </g>
  </g>
  <g
     id="computer"
     transform="translate(0,32)">
    <rect
       x="38"
       y="0"
       width="32"
       height="32"
       opacity="0"
       id="rect923" />
    <g
       id="g931"
       transform="translate(-34,-35)">
      <rect
         style="fill:#ff4e5e;stroke-width:2.84961;stroke-linecap:round;paint-order:stroke fill markers"
         id="rect925"
         width="23.999998"
         height="20"
         x="76"
         y="42"
         ry="2" />
      <rect
         style="fill:#000000;fill-opacity:1;stroke-width:2.44027;stroke-linecap:round;paint-order:stroke fill markers"
         id="rect927"
         width="22.000002"
         height="16"
         x="77"
         y="43"
         ry="1" />
      <rect
         style="fill:#ffffff;fill-opacity:1;stroke-width:2.30269;stroke-linecap:round;paint-order:stroke fill markers"
         id="rect929"
         width="4"
         height="1"
         x="86"
         y="60"
         ry="0.5" />
    </g>
  </g>
</svg>
