<?xml version="1.0" encoding="UTF-8" standalone="no"?>
<svg
   xmlns:dc="http://purl.org/dc/elements/1.1/"
   xmlns:cc="http://creativecommons.org/ns#"
   xmlns:rdf="http://www.w3.org/1999/02/22-rdf-syntax-ns#"
   xmlns:svg="http://www.w3.org/2000/svg"
   xmlns="http://www.w3.org/2000/svg"
   xmlns:sodipodi="http://sodipodi.sourceforge.net/DTD/sodipodi-0.dtd"
   xmlns:inkscape="http://www.inkscape.org/namespaces/inkscape"
   version="1.1"
   viewBox="0 0 22 22"
   id="svg49"
   sodipodi:docname="notification.svg"
   inkscape:version="1.0.1 (3bc2e813f5, 2020-09-07)">
  <metadata
     id="metadata53">
    <rdf:RDF>
      <cc:Work
         rdf:about="">
        <dc:format>image/svg+xml</dc:format>
        <dc:type
           rdf:resource="http://purl.org/dc/dcmitype/StillImage" />
      </cc:Work>
    </rdf:RDF>
  </metadata>
  <sodipodi:namedview
     pagecolor="#ffffff"
     bordercolor="#666666"
     borderopacity="1"
     objecttolerance="10"
     gridtolerance="10"
     guidetolerance="10"
     inkscape:pageopacity="0"
     inkscape:pageshadow="2"
     inkscape:window-width="1920"
     inkscape:window-height="942"
     id="namedview51"
     showgrid="true"
     inkscape:snap-bbox="true"
     inkscape:bbox-nodes="true"
     inkscape:snap-bbox-edge-midpoints="true"
     inkscape:zoom="4.346591"
     inkscape:cx="-11.745896"
     inkscape:cy="34.757072"
     inkscape:window-x="0"
     inkscape:window-y="38"
     inkscape:window-maximized="1"
     inkscape:current-layer="svg49"
     inkscape:document-rotation="0">
    <inkscape:grid
       type="xygrid"
       id="grid878" />
  </sodipodi:namedview>
  <defs
     id="defs3">
    <style
       id="current-color-scheme"
       type="text/css">.ColorScheme-Text { color:#363636; }</style>
  </defs>
  <path
     id="expander-bottom"
     d="m-18 23 2-2 2 2z"
     class="ColorScheme-Text"
     fill="currentColor"
     style="fill:#323232;fill-opacity:1" />
  <path
     id="expander-top"
     d="m-18 17 2 2 2-2z"
     class="ColorScheme-Text"
     fill="currentColor"
     style="fill:#323232;fill-opacity:1" />
  <path
     id="expander-right"
     d="m-13 18-2 2 2 2z"
     class="ColorScheme-Text"
     fill="currentColor"
     style="fill:#323232;fill-opacity:1" />
  <path
     id="expander-left"
     d="m-19 18 2 2-2 2z"
     class="ColorScheme-Text"
     fill="currentColor"
     style="fill:#323232;fill-opacity:1" />
  <g
     id="notification-progress-active"
     class="ColorScheme-Text"
     transform="translate(55.997 -.004652)"
     fill="currentColor">
    <rect
       x="40"
       y="-1"
       width="22"
       height="22"
       fill-opacity="0"
       id="rect14" />
    <path
       d="m51 1a9 9 0 0 0-9 9 9 9 0 0 0 9 9 9 9 0 0 0 9-9 9 9 0 0 0-9-9zm0 2a7 7 0 0 1 7 7 7 7 0 0 1-7 7 7 7 0 0 1-7-7 7 7 0 0 1 7-7z"
       id="path16"
       style="fill:#ffcc00;fill-opacity:1" />
    <circle
       cx="51"
       cy="10"
       r="6"
       id="circle18"
       style="fill:#ffcc00;fill-opacity:1" />
  </g>
  <g
     id="notification-progress-inactive"
     class="ColorScheme-Text"
     transform="translate(56.998,39)"
     fill="currentColor">
    <rect
       x="40"
       y="-1"
       width="22"
       height="22"
       fill-opacity="0"
       id="rect21" />
    <path
       class="ColorScheme-Text"
       d="m51 1a9 9 0 0 0-9 9 9 9 0 0 0 9 9 9 9 0 0 0 9-9 9 9 0 0 0-9-9zm0 2a7 7 0 0 1 7 7 7 7 0 0 1-7 7 7 7 0 0 1-7-7 7 7 0 0 1 7-7z"
       fill="currentColor"
       id="path23"
       style="fill:#ffcc00;fill-opacity:1" />
    <circle
       class="ColorScheme-Text"
       cx="51"
       cy="10"
       r="6"
       fill="currentColor"
       opacity=".15"
       id="circle25"
       style="fill:#ffcc00;fill-opacity:1;opacity:0.2" />
  </g>
  <rect
     style="opacity:1;fill:#ffcc00;fill-opacity:1;stroke-width:1.63067;stroke-linecap:round;stroke-linejoin:round;paint-order:stroke fill markers"
     id="rect896"
     width="13"
     height="18"
     x="4.5"
     y="-27"
     rx="0"
     ry="2" />
  <g
     id="notification-empty">
    <rect
       width="22"
       height="22"
       ry="0"
       opacity="0"
       id="rect9"
       x="0"
       y="0"
       style="color:#363636;fill:#363636" />
    <g
       id="g906"
       transform="translate(-19)">
      <path
         id="rect894"
         style="opacity:1;fill:#ffcc00;fill-opacity:1;stroke-width:1.63067;stroke-linecap:round;stroke-linejoin:round;paint-order:stroke fill markers"
         d="m 25,2 c -1.108,0 -2,0.892 -2,2 v 14 c 0,1.108 0.892,2 2,2 h 9 c 1.108,0 2,-0.892 2,-2 V 7.875 L 30.777344,2 Z" />
      <circle
         style="opacity:1;fill:#ffcc00;fill-opacity:1;stroke:none;stroke-width:3;stroke-linecap:round;stroke-linejoin:round;paint-order:stroke fill markers"
         id="path902"
         cx="36"
         cy="3"
         r="2" />
    </g>
  </g>
  <g
     id="notification-inactive">
    <rect
       x="51.001999"
       y="35.990002"
       width="22"
       height="22"
       ry="0"
       opacity="0"
       id="rect37"
       style="color:#363636;fill:#363636" />
    <g
       id="g950"
       transform="translate(32,36)">
      <path
         id="rect916"
         style="opacity:1;fill:#ffcc00;fill-opacity:1;stroke-width:1.63067;stroke-linecap:round;stroke-linejoin:round;paint-order:stroke fill markers"
         d="m 25,2 c -1.108,0 -2,0.892 -2,2 v 14 c 0,1.108 0.892,2 2,2 h 9 c 1.108,0 2,-0.892 2,-2 V 5.9492188 C 35.838066,5.9828217 35.671108,6 35.5,6 34.937341,6 34.420283,5.8025963 34,5.4824219 V 17 c 0,0.554 -0.446,1 -1,1 h -7 c -0.554,0 -1,-0.446 -1,-1 V 5 c 0,-0.554 0.446,-1 1,-1 h 7 c 0.01944,0 0.03552,0.010635 0.05469,0.011719 C 33.019419,3.8459947 33,3.6754115 33,3.5 33,2.9373413 33.197404,2.420283 33.517578,2 Z"
         sodipodi:nodetypes="sssssscscssssssscscs" />
      <path
         style="color:#000000;font-style:normal;font-variant:normal;font-weight:normal;font-stretch:normal;font-size:medium;line-height:normal;font-family:sans-serif;font-variant-ligatures:normal;font-variant-position:normal;font-variant-caps:normal;font-variant-numeric:normal;font-variant-alternates:normal;font-variant-east-asian:normal;font-feature-settings:normal;font-variation-settings:normal;text-indent:0;text-align:start;text-decoration:none;text-decoration-line:none;text-decoration-style:solid;text-decoration-color:#000000;letter-spacing:normal;word-spacing:normal;text-transform:none;writing-mode:lr-tb;direction:ltr;text-orientation:mixed;dominant-baseline:auto;baseline-shift:baseline;text-anchor:start;white-space:normal;shape-padding:0;shape-margin:0;inline-size:0;clip-rule:nonzero;display:inline;overflow:visible;visibility:visible;opacity:0.3;isolation:auto;mix-blend-mode:normal;color-interpolation:sRGB;color-interpolation-filters:linearRGB;solid-color:#000000;solid-opacity:1;vector-effect:none;fill:#ffcc00;fill-opacity:1;fill-rule:nonzero;stroke:none;stroke-width:2.66667;stroke-linecap:round;stroke-linejoin:round;stroke-miterlimit:4;stroke-dasharray:none;stroke-dashoffset:0;stroke-opacity:1;paint-order:stroke fill markers;color-rendering:auto;image-rendering:auto;shape-rendering:auto;text-rendering:auto;enable-background:accumulate;stop-color:#000000"
         d="m 38,3 c 0,1.1045695 -0.895431,2 -2,2 -1.104569,0 -2,-0.8954305 -2,-2 0,-1.1045695 0.895431,-2 2,-2 1.104569,0 2,0.8954305 2,2 z"
         id="path943" />
    </g>
    <rect
       style="opacity:0.3;fill:#ffcc00;fill-opacity:1;stroke:none;stroke-width:2.04012;stroke-linecap:round;stroke-linejoin:round;stroke-miterlimit:4;stroke-dasharray:none;stroke-opacity:1;paint-order:stroke fill markers"
       id="rect974"
       width="5.0000005"
       height="2"
       x="59"
       y="43"
       rx="0"
       ry="1" />
    <rect
       style="opacity:0.3;fill:#ffcc00;fill-opacity:1;stroke:none;stroke-width:2.04012;stroke-linecap:round;stroke-linejoin:round;stroke-miterlimit:4;stroke-dasharray:none;stroke-opacity:1;paint-order:stroke fill markers"
       id="rect976"
       width="5.0000005"
       height="2"
       x="59"
       y="47"
       rx="0"
       ry="1" />
  </g>
  <g
     id="notification-active"
     transform="translate(-0.0019989)">
    <rect
       x="51.001999"
       y="-3.2153321e-07"
       width="22"
       height="22"
       ry="0"
       opacity="0"
       id="rect961"
       style="color:#363636;fill:#363636" />
    <g
       id="g967"
       transform="translate(32,0.009998)">
      <path
         id="path963"
         style="opacity:1;fill:#ffcc00;fill-opacity:1;stroke-width:1.63067;stroke-linecap:round;stroke-linejoin:round;paint-order:stroke fill markers"
         d="m 25,2 c -1.108,0 -2,0.892 -2,2 v 14 c 0,1.108 0.892,2 2,2 h 9 c 1.108,0 2,-0.892 2,-2 V 5.9492188 C 35.838066,5.9828217 35.671108,6 35.5,6 34.937341,6 34.420283,5.8025963 34,5.4824219 V 17 c 0,0.554 -0.446,1 -1,1 h -7 c -0.554,0 -1,-0.446 -1,-1 V 5 c 0,-0.554 0.446,-1 1,-1 h 7 c 0.01944,0 0.03552,0.010635 0.05469,0.011719 C 33.019419,3.8459947 33,3.6754115 33,3.5 33,2.9373413 33.197404,2.420283 33.517578,2 Z"
         sodipodi:nodetypes="sssssscscssssssscscs" />
      <path
         style="color:#000000;font-style:normal;font-variant:normal;font-weight:normal;font-stretch:normal;font-size:medium;line-height:normal;font-family:sans-serif;font-variant-ligatures:normal;font-variant-position:normal;font-variant-caps:normal;font-variant-numeric:normal;font-variant-alternates:normal;font-variant-east-asian:normal;font-feature-settings:normal;font-variation-settings:normal;text-indent:0;text-align:start;text-decoration:none;text-decoration-line:none;text-decoration-style:solid;text-decoration-color:#000000;letter-spacing:normal;word-spacing:normal;text-transform:none;writing-mode:lr-tb;direction:ltr;text-orientation:mixed;dominant-baseline:auto;baseline-shift:baseline;text-anchor:start;white-space:normal;shape-padding:0;shape-margin:0;inline-size:0;clip-rule:nonzero;display:inline;overflow:visible;visibility:visible;opacity:1;isolation:auto;mix-blend-mode:normal;color-interpolation:sRGB;color-interpolation-filters:linearRGB;solid-color:#000000;solid-opacity:1;vector-effect:none;fill:#ffcc00;fill-opacity:1;fill-rule:nonzero;stroke:none;stroke-width:2.66667;stroke-linecap:round;stroke-linejoin:round;stroke-miterlimit:4;stroke-dasharray:none;stroke-dashoffset:0;stroke-opacity:1;paint-order:stroke fill markers;color-rendering:auto;image-rendering:auto;shape-rendering:auto;text-rendering:auto;enable-background:accumulate;stop-color:#000000"
         d="m 38,3 c 0,1.1045695 -0.895431,2 -2,2 -1.104569,0 -2,-0.8954305 -2,-2 0,-1.1045695 0.895431,-2 2,-2 1.104569,0 2,0.8954305 2,2 z"
         id="path965" />
    </g>
    <rect
       style="opacity:1;fill:#ffcc00;fill-opacity:1;stroke:none;stroke-width:2.04012;stroke-linecap:round;stroke-linejoin:round;stroke-miterlimit:4;stroke-dasharray:none;stroke-opacity:1;paint-order:stroke fill markers"
       id="rect989"
       width="5.0000005"
       height="2"
       x="59"
       y="7"
       rx="0"
       ry="1" />
    <rect
       style="opacity:1;fill:#ffcc00;fill-opacity:1;stroke:none;stroke-width:2.04012;stroke-linecap:round;stroke-linejoin:round;stroke-miterlimit:4;stroke-dasharray:none;stroke-opacity:1;paint-order:stroke fill markers"
       id="rect991"
       width="5.0000005"
       height="2"
       x="59"
       y="11"
       rx="0"
       ry="1" />
  </g>
  <g
     id="notification-disabled">
    <rect
       class="ColorScheme-Text"
       x="0.089056998"
       y="34.990005"
       width="22"
       height="22"
       ry="0"
       opacity="0"
       id="rect44"
       style="fill:#363636" />
    <g
       id="g1032"
       transform="translate(27.178116)">
      <path
         id="rect1013"
         style="opacity:1;fill:#ffcc00;fill-opacity:1;stroke-width:1.63067;stroke-linecap:round;stroke-linejoin:round;paint-order:stroke fill markers"
         d="m -21,38 c -0.105713,0 -0.2074,0.0156 -0.308594,0.03125 L -10,49.339844 V 40 c 0,-1.108 -0.892,-2 -2,-2 z m -2,3.996094 V 54 c 0,1.108 0.892,2 2,2 h 9 c 0.814399,0 1.50969,-0.484316 1.822266,-1.179688 z" />
      <path
         style="color:#363636;font-style:normal;font-variant:normal;font-weight:normal;font-stretch:normal;font-size:medium;line-height:normal;font-family:sans-serif;font-variant-ligatures:normal;font-variant-position:normal;font-variant-caps:normal;font-variant-numeric:normal;font-variant-alternates:normal;font-variant-east-asian:normal;font-feature-settings:normal;font-variation-settings:normal;text-indent:0;text-align:start;text-decoration:none;text-decoration-line:none;text-decoration-style:solid;text-decoration-color:#000000;letter-spacing:normal;word-spacing:normal;text-transform:none;writing-mode:lr-tb;direction:ltr;text-orientation:mixed;dominant-baseline:auto;baseline-shift:baseline;text-anchor:start;white-space:normal;shape-padding:0;shape-margin:0;inline-size:0;clip-rule:nonzero;display:inline;overflow:visible;visibility:visible;isolation:auto;mix-blend-mode:normal;color-interpolation:sRGB;color-interpolation-filters:linearRGB;solid-color:#000000;solid-opacity:1;vector-effect:none;fill:#ff4e5e;fill-opacity:1;fill-rule:nonzero;stroke:none;stroke-width:2;stroke-linecap:butt;stroke-linejoin:miter;stroke-miterlimit:4;stroke-dasharray:none;stroke-dashoffset:0;stroke-opacity:1;color-rendering:auto;image-rendering:auto;shape-rendering:auto;text-rendering:auto;enable-background:accumulate;stop-color:#000000"
         d="m -24.609011,36.145 18.2759997,18.276 c 0.42187,0.42187 0.44613,1.0769 0.05439,1.4686 -0.39174,0.39174 -1.0467,0.36748 -1.4686,-0.05439 l -18.2759997,-18.276 c -0.42187,-0.42187 -0.44613,-1.0769 -0.05439,-1.4686 0.39174,-0.39174 1.0467,-0.36748 1.4686,0.05439 z"
         id="path1022" />
    </g>
  </g>
</svg>
