<?xml version="1.0" encoding="UTF-8" standalone="no"?>
<svg
   xmlns:dc="http://purl.org/dc/elements/1.1/"
   xmlns:cc="http://creativecommons.org/ns#"
   xmlns:rdf="http://www.w3.org/1999/02/22-rdf-syntax-ns#"
   xmlns:svg="http://www.w3.org/2000/svg"
   xmlns="http://www.w3.org/2000/svg"
   xmlns:sodipodi="http://sodipodi.sourceforge.net/DTD/sodipodi-0.dtd"
   xmlns:inkscape="http://www.inkscape.org/namespaces/inkscape"
   id="svg49"
   viewBox="0 0 32 32"
   version="1.1"
   sodipodi:docname="phone.svg"
   inkscape:version="1.0.2 (e86c870879, 2021-01-15, custom)">
  <sodipodi:namedview
     pagecolor="#c8c8c8"
     bordercolor="#666666"
     borderopacity="1"
     objecttolerance="10"
     gridtolerance="10"
     guidetolerance="10"
     inkscape:pageopacity="0"
     inkscape:pageshadow="2"
     inkscape:window-width="1920"
     inkscape:window-height="956"
     id="namedview31"
     showgrid="true"
     inkscape:snap-bbox="true"
     inkscape:bbox-nodes="true"
     inkscape:snap-bbox-edge-midpoints="true"
     inkscape:snap-smooth-nodes="true"
     inkscape:zoom="4.6459125"
     inkscape:cx="-27.167497"
     inkscape:cy="-17.845716"
     inkscape:window-x="0"
     inkscape:window-y="40"
     inkscape:window-maximized="1"
     inkscape:current-layer="svg49">
    <inkscape:grid
       type="xygrid"
       id="grid856" />
  </sodipodi:namedview>
  <metadata
     id="metadata53">
    <rdf:RDF>
      <cc:Work
         rdf:about="">
        <dc:format>image/svg+xml</dc:format>
        <dc:type
           rdf:resource="http://purl.org/dc/dcmitype/StillImage" />
        <dc:title></dc:title>
      </cc:Work>
    </rdf:RDF>
  </metadata>
  <defs
     id="defs3">
    <style
       type="text/css"
       id="current-color-scheme">.ColorScheme-Text { color:#363636; }</style>
  </defs>
  <g
     fill="currentColor"
     class="ColorScheme-Text"
     transform="translate(-322,-487.36)"
     id="16-16-phone">
    <rect
       id="rect12"
       opacity="0"
       ry=".42105"
       height="16"
       width="16"
       y="494.36"
       x="301" />
    <path
       id="path14"
       fill="currentColor"
       d="m-14-34c-1.108 0-2 0.892-2 2v10c0 1.108 0.89199 2 2 2h4c1.108 0 2-0.89199 2-2v-10c0-1.108-0.89199-2-2-2zm0 1h4c0.55401 0 1 0.446 1 1v10c0 0.55401-0.44599 1-1 1h-4c-0.55401 0-1-0.44599-1-1v-10c0-0.554 0.44599-1 1-1z"
       transform="translate(321,529.36)"
       class="ColorScheme-Text"
       style="fill:#00c19f;fill-opacity:1" />
    <circle
       id="circle16"
       opacity=".5"
       fill="currentColor"
       r=".5"
       cy="497.86"
       cx="307.5"
       style="fill:#00c19f;fill-opacity:1" />
  </g>
  <g
     fill="currentColor"
     class="ColorScheme-Text"
     transform="translate(-321,-529.36)"
     id="16-16-phone-battery">
    <rect
       id="rect26"
       opacity="0"
       ry=".42105"
       height="16"
       width="16"
       y="494.36"
       x="300" />
    <path
       id="path28"
       fill="currentColor"
       d="m306 495.36c-1.108 0-2 0.892-2 2v10c0 1.108 0.89199 2 2 2h4c1.108 0 2-0.89199 2-2v-10c0-1.108-0.89199-2-2-2zm0 1h4c0.55401 0 1 0.446 1 1v10c0 0.55401-0.44599 1-1 1h-4c-0.55401 0-1-0.44599-1-1v-10c0-0.554 0.44599-1 1-1z"
       class="ColorScheme-Text"
       style="fill:#00c19f;fill-opacity:1" />
    <circle
       id="circle30"
       opacity=".5"
       fill="currentColor"
       r=".5"
       cy="497.86"
       cx="306.5"
       class="ColorScheme-Text"
       style="fill:#00c19f;fill-opacity:1" />
    <path
       id="path32"
       fill="currentColor"
       d="m308 505.36 1-3h-1v-2l-1 3h1z"
       class="ColorScheme-Text"
       style="fill:#00c19f;fill-opacity:1" />
  </g>
  <rect
     id="rect10"
     fill="none"
     height="22"
     width="22"
     y="31.999985"
     x="41"
     style="color:#363636" />
  <rect
     id="rect23-3"
     fill="none"
     height="32"
     width="32"
     y="40.999985"
     x="-3"
     style="color:#363636" />
  <g
     id="phone">
    <rect
       id="rect7"
       fill="none"
       height="32"
       width="32"
       y="-1.4648437e-05"
       x="0"
       style="color:#363636" />
    <g
       id="g897">
      <path
         style="color:#363636;font-style:normal;font-variant:normal;font-weight:normal;font-stretch:normal;font-size:medium;line-height:normal;font-family:sans-serif;font-variant-ligatures:normal;font-variant-position:normal;font-variant-caps:normal;font-variant-numeric:normal;font-variant-alternates:normal;font-variant-east-asian:normal;font-feature-settings:normal;font-variation-settings:normal;text-indent:0;text-align:start;text-decoration:none;text-decoration-line:none;text-decoration-style:solid;text-decoration-color:#000000;letter-spacing:normal;word-spacing:normal;text-transform:none;writing-mode:lr-tb;direction:ltr;text-orientation:mixed;dominant-baseline:auto;baseline-shift:baseline;text-anchor:start;white-space:normal;shape-padding:0;shape-margin:0;inline-size:0;clip-rule:nonzero;display:inline;overflow:visible;visibility:visible;isolation:auto;mix-blend-mode:normal;color-interpolation:sRGB;color-interpolation-filters:linearRGB;solid-color:#000000;solid-opacity:1;vector-effect:none;fill:#00c19f;fill-opacity:1;fill-rule:nonzero;stroke:none;stroke-width:1;stroke-linecap:butt;stroke-linejoin:miter;stroke-miterlimit:4;stroke-dasharray:none;stroke-dashoffset:0;stroke-opacity:1;color-rendering:auto;image-rendering:auto;shape-rendering:auto;text-rendering:auto;enable-background:accumulate;stop-color:#000000;stop-opacity:1"
         d="M 11,2 C 9.338,2 8,3.338 8,5 v 22 c 0,1.662 1.338,3 3,3 h 10 c 1.662,0 3,-1.338 3,-3 V 5 C 24,3.338 22.662,2 21,2 Z m 0,2 h 1.4922 l 0.49023,0.65234 C 13.09835,4.80615 13.13748,5 13.33009,5 h 5.3398 C 18.8625,5 18.90163,4.80615 19.01755,4.65234 L 19.50778,4 h 1.4922 c 0.55399,0 1,0.44601 1,1 v 22 c 0,0.55399 -0.44601,1 -1,1 h -10 c -0.55399,0 -1,-0.44601 -1,-1 V 5 c 0,-0.55399 0.44601,-1 1,-1 z"
         id="path899" />
    </g>
    <rect
       id="rect924"
       opacity="0.5"
       fill="currentColor"
       ry="1"
       height="2"
       width="8"
       y="24"
       x="12"
       class="ColorScheme-Text"
       style="stroke-width:1.41422;fill:#00c19f;fill-opacity:1;opacity:0.35" />
  </g>
  <g
     id="22-22-phone">
    <rect
       id="rect42"
       fill="none"
       height="22"
       width="22"
       y="5"
       x="41"
       style="color:#363636" />
    <path
       style="color:#363636;font-style:normal;font-variant:normal;font-weight:normal;font-stretch:normal;font-size:medium;line-height:normal;font-family:sans-serif;font-variant-ligatures:normal;font-variant-position:normal;font-variant-caps:normal;font-variant-numeric:normal;font-variant-alternates:normal;font-variant-east-asian:normal;font-feature-settings:normal;font-variation-settings:normal;text-indent:0;text-align:start;text-decoration:none;text-decoration-line:none;text-decoration-style:solid;text-decoration-color:#000000;letter-spacing:normal;word-spacing:normal;text-transform:none;writing-mode:lr-tb;direction:ltr;text-orientation:mixed;dominant-baseline:auto;baseline-shift:baseline;text-anchor:start;white-space:normal;shape-padding:0;shape-margin:0;inline-size:0;clip-rule:nonzero;display:inline;overflow:visible;visibility:visible;isolation:auto;mix-blend-mode:normal;color-interpolation:sRGB;color-interpolation-filters:linearRGB;solid-color:#000000;solid-opacity:1;vector-effect:none;fill:#00c19f;fill-opacity:1;fill-rule:nonzero;stroke:none;stroke-width:1;stroke-linecap:butt;stroke-linejoin:miter;stroke-miterlimit:4;stroke-dasharray:none;stroke-dashoffset:0;stroke-opacity:1;color-rendering:auto;image-rendering:auto;shape-rendering:auto;text-rendering:auto;enable-background:accumulate;stop-color:#000000"
       d="m 50,6.999985 h 4 c 0.554,0 1,0.446 1,1 0,0.554 -0.446,1 -1,1 h -4 c -0.554,0 -1,-0.446 -1,-1 0,-0.554 0.446,-1 1,-1 z"
       id="path926" />
    <path
       style="color:#363636;font-style:normal;font-variant:normal;font-weight:normal;font-stretch:normal;font-size:medium;line-height:normal;font-family:sans-serif;font-variant-ligatures:normal;font-variant-position:normal;font-variant-caps:normal;font-variant-numeric:normal;font-variant-alternates:normal;font-variant-east-asian:normal;font-feature-settings:normal;font-variation-settings:normal;text-indent:0;text-align:start;text-decoration:none;text-decoration-line:none;text-decoration-style:solid;text-decoration-color:#000000;letter-spacing:normal;word-spacing:normal;text-transform:none;writing-mode:lr-tb;direction:ltr;text-orientation:mixed;dominant-baseline:auto;baseline-shift:baseline;text-anchor:start;white-space:normal;shape-padding:0;shape-margin:0;inline-size:0;clip-rule:nonzero;display:inline;overflow:visible;visibility:visible;isolation:auto;mix-blend-mode:normal;color-interpolation:sRGB;color-interpolation-filters:linearRGB;solid-color:#000000;solid-opacity:1;vector-effect:none;fill:#00c19f;fill-opacity:1;fill-rule:nonzero;stroke:none;stroke-width:1;stroke-linecap:butt;stroke-linejoin:miter;stroke-miterlimit:4;stroke-dasharray:none;stroke-dashoffset:0;stroke-opacity:1;color-rendering:auto;image-rendering:auto;shape-rendering:auto;text-rendering:auto;enable-background:accumulate;stop-color:#000000"
       d="m 48,6 c -1.662,0 -3,1.338 -3,3 v 14 c 0,1.662 1.338,3 3,3 h 8 c 1.662,0 3,-1.338 3,-3 V 9 C 59,7.338 57.662,6 56,6 Z m 0,2 h 8 c 0.55399,0 1,0.44601 1,1 v 14 c 0,0.55399 -0.44601,1 -1,1 h -8 c -0.55399,0 -1,-0.44601 -1,-1 V 9 c 0,-0.55399 0.44601,-1 1,-1 z"
       id="path917"
       sodipodi:nodetypes="ssssssssssssssssss" />
    <rect
       id="rect960"
       opacity="0.5"
       fill="currentColor"
       ry="1"
       height="2"
       width="6"
       y="20"
       x="49"
       class="ColorScheme-Text"
       style="stroke-width:1.41421;fill:#00c19f;fill-opacity:1;opacity:0.35" />
  </g>
  <g
     id="22-22-phone-battery">
    <rect
       id="rect35"
       fill="none"
       height="22"
       width="22"
       y="-36.000015"
       x="41"
       style="color:#363636" />
    <path
       id="path39"
       d="m 52,-30 -2,5 h 2 v 3 l 2,-5 h -2 z"
       style="color:#363636;fill:#00c19f;fill-opacity:1"
       sodipodi:nodetypes="ccccccc" />
    <g
       id="g990"
       transform="translate(-27,29.000015)">
      <path
         style="color:#363636;font-style:normal;font-variant:normal;font-weight:normal;font-stretch:normal;font-size:medium;line-height:normal;font-family:sans-serif;font-variant-ligatures:normal;font-variant-position:normal;font-variant-caps:normal;font-variant-numeric:normal;font-variant-alternates:normal;font-variant-east-asian:normal;font-feature-settings:normal;font-variation-settings:normal;text-indent:0;text-align:start;text-decoration:none;text-decoration-line:none;text-decoration-style:solid;text-decoration-color:#000000;letter-spacing:normal;word-spacing:normal;text-transform:none;writing-mode:lr-tb;direction:ltr;text-orientation:mixed;dominant-baseline:auto;baseline-shift:baseline;text-anchor:start;white-space:normal;shape-padding:0;shape-margin:0;inline-size:0;clip-rule:nonzero;display:inline;overflow:visible;visibility:visible;isolation:auto;mix-blend-mode:normal;color-interpolation:sRGB;color-interpolation-filters:linearRGB;solid-color:#000000;solid-opacity:1;vector-effect:none;fill:#00c19f;fill-opacity:1;fill-rule:nonzero;stroke:none;stroke-width:1;stroke-linecap:butt;stroke-linejoin:miter;stroke-miterlimit:4;stroke-dasharray:none;stroke-dashoffset:0;stroke-opacity:1;color-rendering:auto;image-rendering:auto;shape-rendering:auto;text-rendering:auto;enable-background:accumulate;stop-color:#000000"
         d="m 77,-63.000015 h 4 c 0.554,0 1,0.446 1,1 0,0.554 -0.446,1 -1,1 h -4 c -0.554,0 -1,-0.446 -1,-1 0,-0.554 0.446,-1 1,-1 z"
         id="path973" />
      <path
         style="color:#363636;font-style:normal;font-variant:normal;font-weight:normal;font-stretch:normal;font-size:medium;line-height:normal;font-family:sans-serif;font-variant-ligatures:normal;font-variant-position:normal;font-variant-caps:normal;font-variant-numeric:normal;font-variant-alternates:normal;font-variant-east-asian:normal;font-feature-settings:normal;font-variation-settings:normal;text-indent:0;text-align:start;text-decoration:none;text-decoration-line:none;text-decoration-style:solid;text-decoration-color:#000000;letter-spacing:normal;word-spacing:normal;text-transform:none;writing-mode:lr-tb;direction:ltr;text-orientation:mixed;dominant-baseline:auto;baseline-shift:baseline;text-anchor:start;white-space:normal;shape-padding:0;shape-margin:0;inline-size:0;clip-rule:nonzero;display:inline;overflow:visible;visibility:visible;isolation:auto;mix-blend-mode:normal;color-interpolation:sRGB;color-interpolation-filters:linearRGB;solid-color:#000000;solid-opacity:1;vector-effect:none;fill:#00c19f;fill-opacity:1;fill-rule:nonzero;stroke:none;stroke-width:1;stroke-linecap:butt;stroke-linejoin:miter;stroke-miterlimit:4;stroke-dasharray:none;stroke-dashoffset:0;stroke-opacity:1;color-rendering:auto;image-rendering:auto;shape-rendering:auto;text-rendering:auto;enable-background:accumulate;stop-color:#000000"
         d="m 75,-64 c -1.662,0 -3,1.338 -3,3 v 14 c 0,1.662 1.338,3 3,3 h 8 c 1.662,0 3,-1.338 3,-3 v -14 c 0,-1.662 -1.338,-3 -3,-3 z m 0,2 h 8 c 0.55399,0 1,0.44601 1,1 v 14 c 0,0.55399 -0.44601,1 -1,1 h -8 c -0.55399,0 -1,-0.44601 -1,-1 v -14 c 0,-0.55399 0.44601,-1 1,-1 z"
         id="path975"
         sodipodi:nodetypes="ssssssssssssssssss" />
      <rect
         id="rect977"
         opacity="0.5"
         fill="currentColor"
         ry="1"
         height="2"
         width="6"
         y="-50"
         x="76"
         class="ColorScheme-Text"
         style="opacity:0.35;fill:#00c19f;fill-opacity:1;stroke-width:1.41421" />
    </g>
  </g>
  <g
     id="phone-battery">
    <rect
       id="rect21"
       fill="none"
       height="32"
       width="32"
       y="-42.000015"
       x="0"
       style="color:#363636" />
    <g
       id="g999"
       transform="translate(0,32)">
      <g
         id="g931"
         transform="translate(0,-74)">
        <path
           style="color:#363636;font-style:normal;font-variant:normal;font-weight:normal;font-stretch:normal;font-size:medium;line-height:normal;font-family:sans-serif;font-variant-ligatures:normal;font-variant-position:normal;font-variant-caps:normal;font-variant-numeric:normal;font-variant-alternates:normal;font-variant-east-asian:normal;font-feature-settings:normal;font-variation-settings:normal;text-indent:0;text-align:start;text-decoration:none;text-decoration-line:none;text-decoration-style:solid;text-decoration-color:#000000;letter-spacing:normal;word-spacing:normal;text-transform:none;writing-mode:lr-tb;direction:ltr;text-orientation:mixed;dominant-baseline:auto;baseline-shift:baseline;text-anchor:start;white-space:normal;shape-padding:0;shape-margin:0;inline-size:0;clip-rule:nonzero;display:inline;overflow:visible;visibility:visible;isolation:auto;mix-blend-mode:normal;color-interpolation:sRGB;color-interpolation-filters:linearRGB;solid-color:#000000;solid-opacity:1;vector-effect:none;fill:#00c19f;fill-opacity:1;fill-rule:nonzero;stroke:none;stroke-width:1;stroke-linecap:butt;stroke-linejoin:miter;stroke-miterlimit:4;stroke-dasharray:none;stroke-dashoffset:0;stroke-opacity:1;color-rendering:auto;image-rendering:auto;shape-rendering:auto;text-rendering:auto;enable-background:accumulate;stop-color:#000000;stop-opacity:1"
           d="M 11,2 C 9.338,2 8,3.338 8,5 v 22 c 0,1.662 1.338,3 3,3 h 10 c 1.662,0 3,-1.338 3,-3 V 5 C 24,3.338 22.662,2 21,2 Z m 0,2 h 1.4922 l 0.49023,0.65234 C 13.09835,4.80615 13.13748,5 13.33009,5 h 5.3398 C 18.8625,5 18.90163,4.80615 19.01755,4.65234 L 19.50778,4 h 1.4922 c 0.55399,0 1,0.44601 1,1 v 22 c 0,0.55399 -0.44601,1 -1,1 h -10 c -0.55399,0 -1,-0.44601 -1,-1 V 5 c 0,-0.55399 0.44601,-1 1,-1 z"
           id="path929" />
      </g>
      <rect
         id="rect933"
         opacity="0.5"
         fill="currentColor"
         ry="1"
         height="2"
         width="8"
         y="-50"
         x="12"
         class="ColorScheme-Text"
         style="opacity:0.35;fill:#00c19f;fill-opacity:1;stroke-width:1.41422" />
    </g>
    <path
       id="path19"
       d="m 16.5,-34 -4,8 H 15 v 6 l 4.5,-8 h -3 z"
       style="color:#363636;fill:#00c19f;fill-opacity:1"
       sodipodi:nodetypes="ccccccc" />
  </g>
</svg>
