<?xml version="1.0" encoding="UTF-8" standalone="no"?>
<svg
   version="1.1"
   viewBox="0 0 22 22"
   id="svg9"
   sodipodi:docname="video-card.svg"
   inkscape:version="1.1 (c4e8f9ed74, 2021-05-24)"
   xmlns:inkscape="http://www.inkscape.org/namespaces/inkscape"
   xmlns:sodipodi="http://sodipodi.sourceforge.net/DTD/sodipodi-0.dtd"
   xmlns:xlink="http://www.w3.org/1999/xlink"
   xmlns="http://www.w3.org/2000/svg"
   xmlns:svg="http://www.w3.org/2000/svg">
  <defs
     id="defs13">
    <linearGradient
       inkscape:collect="always"
       xlink:href="#linearGradient886"
       id="linearGradient888"
       x1="25.999998"
       y1="10.5"
       x2="44"
       y2="10.5"
       gradientUnits="userSpaceOnUse" />
    <linearGradient
       inkscape:collect="always"
       id="linearGradient886">
      <stop
         style="stop-color:#000000;stop-opacity:1"
         offset="0"
         id="stop881" />
      <stop
         style="stop-color:#787878;stop-opacity:1"
         offset="1"
         id="stop884" />
    </linearGradient>
  </defs>
  <sodipodi:namedview
     id="namedview11"
     pagecolor="#ffffff"
     bordercolor="#999999"
     borderopacity="1"
     inkscape:pageshadow="0"
     inkscape:pageopacity="0"
     inkscape:pagecheckerboard="0"
     showgrid="false"
     inkscape:zoom="26.966481"
     inkscape:cx="7.880153"
     inkscape:cy="12.459913"
     inkscape:window-width="1920"
     inkscape:window-height="997"
     inkscape:window-x="0"
     inkscape:window-y="0"
     inkscape:window-maximized="1"
     inkscape:current-layer="svg9" />
  <g
     id="22-22-video-card-inactive">
    <rect
       id="rect5"
       opacity="0"
       height="22"
       width="22"
       y="4.4627209e-13"
       x="2.5066428e-15"
       style="color:#363636;fill:#363636" />
    <g
       id="g893"
       transform="translate(-24.000001,-1.7631e-5)">
      <rect
         style="fill:#ff4e5e;stroke-width:2.3983;stroke-linecap:round;paint-order:stroke fill markers"
         id="rect875"
         width="20"
         height="17"
         x="25"
         y="3"
         ry="2" />
      <rect
         style="fill:#ffffff;fill-opacity:1;stroke-width:2.30269;stroke-linecap:round;paint-order:stroke fill markers"
         id="rect877"
         width="4"
         height="1"
         x="33"
         y="18"
         ry="0.5" />
      <rect
         style="fill:url(#linearGradient888);fill-opacity:1;stroke-width:1.98963;stroke-linecap:round;paint-order:stroke fill markers"
         id="rect879"
         width="18.000002"
         height="13"
         x="25.999998"
         y="4"
         ry="1" />
    </g>
    <path
       style="color:#000000;fill:#ffffff;stroke-width:2;-inkscape-stroke:none;fill-opacity:1"
       d="M 10.768,7.0974604 A 2,2 0 0 0 9,9.0834604 h 1 a 1,1 0 0 1 1,-1 c 0.507,0 0.935,0.395 0.994,0.898 C 11.976,10.16146 11.098,10.21846 10.002,10.30446 L 10,12.09746 h 1 v -1.014 h 0.232 A 2,2 0 0 0 13,9.1874604 c -0.01,-0.106 -0.008,-0.196 -0.014,-0.32 a 2,2 0 0 0 -1.896,-1.768 z M 10.002,13.08346 v 1 h 1 v -1 z"
       id="path1303" />
  </g>
</svg>
