<?xml version="1.0" encoding="UTF-8" standalone="no"?>
<svg
   xmlns:dc="http://purl.org/dc/elements/1.1/"
   xmlns:cc="http://creativecommons.org/ns#"
   xmlns:rdf="http://www.w3.org/1999/02/22-rdf-syntax-ns#"
   xmlns:svg="http://www.w3.org/2000/svg"
   xmlns="http://www.w3.org/2000/svg"
   xmlns:xlink="http://www.w3.org/1999/xlink"
   xmlns:sodipodi="http://sodipodi.sourceforge.net/DTD/sodipodi-0.dtd"
   xmlns:inkscape="http://www.inkscape.org/namespaces/inkscape"
   viewBox="0 0 22 22"
   version="1.1"
   id="svg"
   sodipodi:docname="video.svg"
   inkscape:version="1.0.1 (3bc2e813f5, 2020-09-07)">
  <sodipodi:namedview
     pagecolor="#ffffff"
     bordercolor="#666666"
     borderopacity="1"
     objecttolerance="10"
     gridtolerance="10"
     guidetolerance="10"
     inkscape:pageopacity="0"
     inkscape:pageshadow="2"
     inkscape:window-width="1920"
     inkscape:window-height="942"
     id="namedview30"
     showgrid="true"
     inkscape:snap-bbox="true"
     inkscape:bbox-nodes="true"
     inkscape:snap-bbox-edge-midpoints="true"
     inkscape:zoom="17.613636"
     inkscape:cx="-3.7801002"
     inkscape:cy="-17.489127"
     inkscape:window-x="0"
     inkscape:window-y="38"
     inkscape:window-maximized="1"
     inkscape:current-layer="svg"
     showguides="true"
     inkscape:guide-bbox="true">
    <inkscape:grid
       type="xygrid"
       id="grid871" />
    <sodipodi:guide
       position="11,51"
       orientation="1,0"
       id="guide873" />
  </sodipodi:namedview>
  <metadata
     id="metadata54">
    <rdf:RDF>
      <cc:Work
         rdf:about="">
        <dc:format>image/svg+xml</dc:format>
        <dc:type
           rdf:resource="http://purl.org/dc/dcmitype/StillImage" />
        <dc:title />
      </cc:Work>
    </rdf:RDF>
  </metadata>
  <defs
     id="defs3">
    <linearGradient
       inkscape:collect="always"
       id="linearGradient887">
      <stop
         style="stop-color:#000000;stop-opacity:1;"
         offset="0"
         id="stop883" />
      <stop
         style="stop-color:#787878;stop-opacity:1"
         offset="1"
         id="stop885" />
    </linearGradient>
    <style
       type="text/css"
       id="current-color-scheme">.ColorScheme-Text { color:#363636; }</style>
    <linearGradient
       inkscape:collect="always"
       xlink:href="#linearGradient887"
       id="linearGradient889"
       x1="-2"
       y1="-19"
       x2="24"
       y2="-19"
       gradientUnits="userSpaceOnUse" />
  </defs>
  <g
     fill="currentColor"
     class="ColorScheme-Text"
     id="22-22-video-display-brightness">
    <rect
       id="rect5"
       opacity="0"
       height="22"
       width="22"
       y="1.7631e-5"
       x="9.1292e-7" />
    <g
       id="g21"
       transform="translate(-2.5 .35108)">
      <path
         id="path7"
         d="m4.5 2.6489c-0.554 0-1 0.446-1 1v10h20v-10c0-0.554-0.446-1-1-1zm0 1h18v9h-18z" />
      <circle
         id="circle9"
         opacity=".2"
         r=".33333"
         cy="14.659"
         cx="13.5" />
      <rect
         id="rect11"
         opacity=".844"
         height="1"
         width="8"
         y="18.649"
         x="9.5" />
      <path
         id="path13"
         opacity=".3"
         d="m11.5 16.649v1c1.6e-4 0.92464-1.4039 0.88819-2 1h8c-0.59608-0.11181-2.0002-0.0754-2-1v-1h1e-5z" />
      <rect
         id="rect15"
         opacity=".3"
         height="1"
         width="4"
         y="16.649"
         x="11.5" />
      <path
         id="path17"
         opacity=".9"
         d="m4.5 2.6489c-0.554 0-1 0.446-1 1v12c0 0.554 0.446 1 1 1h18c0.554 0 1-0.446 1-1v-12c0-0.554-0.446-1-1-1zm0 1h18v12h-18z" />
      <rect
         id="rect19"
         opacity=".25"
         height="9"
         width="18"
         y="3.6489"
         x="4.5" />
    </g>
    <path
       id="path23"
       d="m11 5c-1.933 0-3.5 1.567-3.5 3.5 0 1.933 1.567 3.5 3.5 3.5 1.933 0 3.5-1.567 3.5-3.5 0-1.933-1.567-3.5-3.5-3.5zm0 1v5c-1.3807 0-2.5-1.1193-2.5-2.5 0-1.3807 1.1193-2.5 2.5-2.5z" />
  </g>
  <g
     id="video-display-brightness"
     transform="translate(-43,-35)">
    <rect
       x="38"
       y="0"
       width="32"
       height="32"
       opacity="0"
       id="rect923" />
    <g
       id="g931"
       transform="translate(-34,-35)">
      <rect
         style="fill:#ff4e5e;stroke-width:3.3717;stroke-linecap:round;paint-order:stroke fill markers"
         id="rect925"
         width="28.000006"
         height="24"
         x="73.999992"
         y="40"
         ry="2" />
      <path
         id="rect927"
         style="fill:url(#linearGradient889);fill-opacity:1;stroke-width:2.96598;stroke-linecap:round;paint-order:stroke fill markers"
         d="M -1 -29 C -1.554 -29 -2 -28.554 -2 -28 L -2 -10 C -2 -9.446 -1.554 -9 -1 -9 L 11 -9 L 23 -9 C 23.554002 -9 24 -9.446 24 -10 L 24 -28 C 24 -28.554 23.554002 -29 23 -29 L 11 -29 L -1 -29 z "
         transform="translate(77,70)" />
      <rect
         style="fill:#ffffff;fill-opacity:1;stroke-width:2.30269;stroke-linecap:round;paint-order:stroke fill markers"
         id="rect929"
         width="4"
         height="1"
         x="86"
         y="62"
         ry="0.5" />
    </g>
  </g>
</svg>
