<?xml version="1.0" encoding="UTF-8" standalone="no"?>
<svg
   xmlns:dc="http://purl.org/dc/elements/1.1/"
   xmlns:cc="http://creativecommons.org/ns#"
   xmlns:rdf="http://www.w3.org/1999/02/22-rdf-syntax-ns#"
   xmlns:svg="http://www.w3.org/2000/svg"
   xmlns="http://www.w3.org/2000/svg"
   xmlns:sodipodi="http://sodipodi.sourceforge.net/DTD/sodipodi-0.dtd"
   xmlns:inkscape="http://www.inkscape.org/namespaces/inkscape"
   width="48"
   height="48"
   version="1.1"
   viewBox="0 0 12.698182 12.698182"
   id="svg24"
   sodipodi:docname="arrows.svg"
   inkscape:version="1.0.2 (e86c870879, 2021-01-15)">
  <metadata
     id="metadata30">
    <rdf:RDF>
      <cc:Work
         rdf:about="">
        <dc:format>image/svg+xml</dc:format>
        <dc:type
           rdf:resource="http://purl.org/dc/dcmitype/StillImage" />
        <dc:title />
      </cc:Work>
    </rdf:RDF>
  </metadata>
  <defs
     id="defs28">
    <style
       type="text/css"
       id="current-color-scheme">
      .ColorScheme-Text {
        color:#31363b;
      }
      .ColorScheme-Background{
        color:#eff0f1;
      }
      .ColorScheme-ViewText {
        color:#31363b;
      }
      .ColorScheme-ViewBackground{
        color:#fcfcfc;
      }
      .ColorScheme-ViewHover {
        color:#3daee9;
      }
      .ColorScheme-ViewFocus{
        color:#3daee9;
      }
      .ColorScheme-ButtonText {
        color:#31363b;
      }
      .ColorScheme-ButtonBackground{
        color:#eff0f1;
      }
      .ColorScheme-ButtonHover {
        color:#3daee9;
      }
      .ColorScheme-ButtonFocus{
        color:#3daee9;
      }
</style>
    <style
       type="text/css"
       id="style843" />
  </defs>
  <sodipodi:namedview
     pagecolor="#c8c8c8"
     bordercolor="#666666"
     borderopacity="1"
     objecttolerance="10"
     gridtolerance="10"
     guidetolerance="10"
     inkscape:pageopacity="0"
     inkscape:pageshadow="2"
     inkscape:window-width="1920"
     inkscape:window-height="935"
     id="namedview26"
     showgrid="true"
     inkscape:zoom="7.5853275"
     inkscape:cx="11.869174"
     inkscape:cy="7.6814881"
     inkscape:window-x="0"
     inkscape:window-y="38"
     inkscape:window-maximized="1"
     inkscape:current-layer="svg24"
     inkscape:document-rotation="0">
    <inkscape:grid
       type="xygrid"
       id="grid824" />
  </sodipodi:namedview>
  <path
     sodipodi:nodetypes="cccccccc"
     id="path5477-8"
     d="m -4.2327276,3.4390911 0.148026,0.1480261 0.11652,0.1165193 1.322727,-1.3227272 1.3227273,1.3227272 0.2645454,-0.2645454 -1.5872727,-1.5872728 z"
     style="color:#31363b;opacity:0.5;fill:#323232;fill-opacity:1;stroke-width:0.341526"
     inkscape:connector-curvature="0"
     class="ColorScheme-Text" />
  <g
     id="right-arrow"
     transform="matrix(0.26454545,0,0,0.26454545,6.878182,3.439091)"
     inkscape:label="#right-arrow">
    <rect
       style="opacity:0;fill:#7d7d7d;fill-opacity:1;stroke:none"
       id="rect3772"
       width="22"
       height="22"
       x="0"
       y="0" />
    <path
       class="ColorScheme-Text"
       inkscape:connector-curvature="0"
       style="color:#31363b;fill:#ffffff;fill-opacity:1"
       d="M 8,17 7,16 12,11 7,6 8,5 l 6,6 z"
       id="path3774"
       sodipodi:nodetypes="ccccccc" />
  </g>
  <path
     sodipodi:nodetypes="ccccccc"
     id="path3782"
     d="m -4.2327272,8.9945455 0.2645454,-0.2645454 1.3227272,1.3227269 1.3227273,-1.3227269 0.2645454,0.2645454 -1.5872727,1.5872725 z"
     style="color:#31363b;opacity:0.5;fill:#323232;fill-opacity:1;stroke-width:0.264545"
     inkscape:connector-curvature="0"
     class="ColorScheme-Text" />
  <g
     id="left-arrow"
     transform="matrix(0.26454545,0,0,0.26454545,9e-8,3.439091)">
    <rect
       style="opacity:0;fill:#7d7d7d;fill-opacity:1;stroke:none"
       id="rect3788"
       width="22"
       height="22"
       x="0"
       y="0" />
    <path
       class="ColorScheme-Text"
       inkscape:connector-curvature="0"
       style="color:#31363b;fill:#ffffff;fill-opacity:1"
       d="M 14,17 15,16 10,11 15,6 14,5 8,11 Z"
       id="path3790"
       sodipodi:nodetypes="ccccccc" />
  </g>
  <g
     id="down-arrow">
    <rect
       y="6.8781819"
       x="3.4390912"
       height="5.8199997"
       width="5.8199997"
       id="rect3780"
       style="opacity:0;fill:#7d7d7d;fill-opacity:1;stroke:none;stroke-width:0.264545" />
    <path
       d="m 7.7186256,10.210384 h -0.512801 c 0,-0.0042 0,-0.0042 0,-0.0085 V 8.0956107 c 0,-0.2330911 -0.190711,-0.423802 -0.423802,-0.423802 h -0.860318 c -0.233091,0 -0.423802,0.1907109 -0.423802,0.423802 v 2.1062963 c 0,0.0042 0,0.0042 0,0.0085 H 4.9808648 c -0.2924238,0 -0.436516,0.296661 -0.2330912,0.466182 l 1.36888,1.148503 c 0.127141,0.105951 0.334803,0.105951 0.461944,0 l 1.368881,-1.148503 c 0.207663,-0.169521 0.06357,-0.466182 -0.228853,-0.466182 z"
       p-id="2566"
       id="path847"
       style="fill:#2eafff;fill-opacity:1;stroke-width:0.00662191" />
  </g>
  <g
     id="up-arrow">
    <rect
       y="2e-07"
       x="3.4390912"
       height="5.8199997"
       width="5.8199997"
       id="rect2992"
       style="opacity:0;fill:#7d7d7d;fill-opacity:1;stroke:none;stroke-width:0.264545" />
    <path
       d="m 7.7186257,2.487798 h -0.512801 c 0,0.0042 0,0.0042 0,0.0085 v 2.1062733 c 0,0.2330911 -0.190711,0.423802 -0.423802,0.423802 h -0.860318 c -0.233091,0 -0.423802,-0.1907109 -0.423802,-0.423802 V 2.496275 c 0,-0.0042 0,-0.0042 0,-0.0085 h -0.517038 c -0.292424,0 -0.436516,-0.296661 -0.233091,-0.466182 l 1.36888,-1.14850297 c 0.127141,-0.10595102 0.334803,-0.10595102 0.461944,0 L 7.9474787,2.021593 c 0.207663,0.169521 0.06357,0.466182 -0.228853,0.466182 z"
       p-id="2566"
       id="path865"
       style="fill:#2eafff;fill-opacity:1;stroke-width:0.00662191" />
  </g>
</svg>
